<?xml version="1.0" encoding="UTF-8"?>
<svg width="252px" height="306px" viewBox="0 0 252 306" version="1.1" xmlns="http://www.w3.org/2000/svg" xmlns:xlink="http://www.w3.org/1999/xlink">
    <title>icon_33_m</title>
    <defs>
        <polygon id="path-1" points="0 0.131076546 2.53700284 0.131076546 2.53700284 2.66155729 0 2.66155729"></polygon>
        <polygon id="path-3" points="0.0795375 0.207094516 0.437492045 0.207094516 0.437492045 0.44885951 0.0795375 0.44885951"></polygon>
    </defs>
    <g id="Page-1" stroke="none" stroke-width="1" fill="none" fill-rule="evenodd">
        <g id="icon_33_m">
            <g id="Group-217" transform="translate(10.000000, 8.000000)" fill="#E60000">
                <path d="M161.124395,73.8361894 C161.072188,73.8361894 161.029635,73.7938379 161.029635,73.7414369 C161.029635,73.6890359 161.072188,73.6463255 161.124395,73.6463255 C161.176603,73.6463255 161.219155,73.6890359 161.219155,73.7414369 C161.219155,73.7938379 161.176603,73.8361894 161.124395,73.8361894" id="Fill-1"></path>
                <path d="M167.361896,76.6719802 C167.257481,76.6719802 167.173091,76.5869183 167.173091,76.4821163 C167.173091,76.3773144 167.257481,76.2922525 167.361896,76.2922525 C167.466311,76.2922525 167.550701,76.3773144 167.550701,76.4821163 C167.550701,76.5869183 167.466311,76.6719802 167.361896,76.6719802" id="Fill-3"></path>
                <path d="M173.421641,79.8848428 C173.265019,79.8848428 173.137718,79.7574295 173.137718,79.6002265 C173.137718,79.4430235 173.265019,79.3152512 173.421641,79.3152512 C173.577906,79.3152512 173.705206,79.4430235 173.705206,79.6002265 C173.705206,79.7574295 173.577906,79.8848428 173.421641,79.8848428" id="Fill-5"></path>
                <path d="M179.288969,83.4410037 C179.084431,83.4410037 178.918154,83.2744691 178.918154,83.0688131 C178.918154,82.8631572 179.084431,82.6966225 179.288969,82.6966225 C179.493508,82.6966225 179.659785,82.8631572 179.659785,83.0688131 C179.659785,83.2744691 179.493508,83.4410037 179.288969,83.4410037" id="Fill-7"></path>
                <path d="M184.944321,87.3266448 C184.696157,87.3266448 184.494837,87.1249369 184.494837,86.8758527 C184.494837,86.6267686 184.696157,86.4247017 184.944321,86.4247017 C185.192485,86.4247017 185.393806,86.6267686 185.393806,86.8758527 C185.393806,87.1249369 185.192485,87.3266448 184.944321,87.3266448" id="Fill-9"></path>
                <path d="M190.362916,91.5432017 C190.071842,91.5432017 189.835121,91.3059616 189.835121,91.0134493 C189.835121,90.7209369 190.071842,90.4840557 190.362916,90.4840557 C190.653991,90.4840557 190.890712,90.7209369 190.890712,91.0134493 C190.890712,91.3059616 190.653991,91.5432017 190.362916,91.5432017" id="Fill-11"></path>
                <path d="M195.519973,96.084896 C195.185274,96.084896 194.914224,95.8124827 194.914224,95.4765421 C194.914224,95.1406015 195.185274,94.8681881 195.519973,94.8681881 C195.854673,94.8681881 196.12608,95.1406015 196.12608,95.4765421 C196.12608,95.8124827 195.854673,96.084896 195.519973,96.084896" id="Fill-13"></path>
                <path d="M200.38753,100.94254 C200.00992,100.94254 199.704184,100.635312 199.704184,100.256661 C199.704184,99.877651 200.00992,99.5704233 200.38753,99.5704233 C200.765139,99.5704233 201.070875,99.877651 201.070875,100.256661 C201.070875,100.635312 200.765139,100.94254 200.38753,100.94254" id="Fill-15"></path>
                <path d="M204.93662,106.092085 C204.523252,106.092085 204.188195,105.755786 204.188195,105.340885 C204.188195,104.926343 204.523252,104.590043 204.93662,104.590043 C205.349631,104.590043 205.684689,104.926343 205.684689,105.340885 C205.684689,105.755786 205.349631,106.092085 204.93662,106.092085" id="Fill-17"></path>
                <path d="M209.14175,111.532277 C208.692623,111.532277 208.328959,111.166906 208.328959,110.716473 C208.328959,110.265681 208.692623,109.900309 209.14175,109.900309 C209.590877,109.900309 209.954541,110.265681 209.954541,110.716473 C209.954541,111.166906 209.590877,111.532277 209.14175,111.532277" id="Fill-19"></path>
                <path d="M212.97846,117.243626 C212.493574,117.243626 212.100946,116.849183 212.100946,116.3625 C212.100946,115.875817 212.493574,115.481374 212.97846,115.481374 C213.462988,115.481374 213.855974,115.875817 213.855974,116.3625 C213.855974,116.849183 213.462988,117.243626 212.97846,117.243626" id="Fill-21"></path>
                <path d="M216.426832,123.202121 C215.906546,123.202121 215.484595,122.778606 215.484595,122.256032 C215.484595,121.733458 215.906546,121.309943 216.426832,121.309943 C216.947476,121.309943 217.369784,121.733458 217.369784,122.256032 C217.369784,122.778606 216.947476,123.202121 216.426832,123.202121" id="Fill-23"></path>
                <path d="M219.472599,129.380449 C218.916197,129.380449 218.46564,128.927863 218.46564,128.369397 C218.46564,127.810932 218.916197,127.358345 219.472599,127.358345 C220.029359,127.358345 220.479917,127.810932 220.479917,128.369397 C220.479917,128.927863 220.029359,129.380449 219.472599,129.380449" id="Fill-25"></path>
                <path d="M222.106643,135.747457 C221.514482,135.747457 221.034245,135.265798 221.034245,134.671442 C221.034245,134.077085 221.514482,133.595427 222.106643,133.595427 C222.698446,133.595427 223.178683,134.077085 223.178683,134.671442 C223.178683,135.265798 222.698446,135.747457 222.106643,135.747457" id="Fill-27"></path>
                <path d="M224.327247,142.259536 C223.707194,142.259536 223.204072,141.754907 223.204072,141.132197 C223.204072,140.509845 223.707194,140.005217 224.327247,140.005217 C224.947299,140.005217 225.450422,140.509845 225.450422,141.132197 C225.450422,141.754907 224.947299,142.259536 224.327247,142.259536" id="Fill-29"></path>
                <path d="M226.139596,148.899208 C225.490936,148.899208 224.965643,148.371609 224.965643,147.720903 C224.965643,147.070198 225.490936,146.542599 226.139596,146.542599 C226.78754,146.542599 227.31319,147.070198 227.31319,147.720903 C227.31319,148.371609 226.78754,148.899208 226.139596,148.899208" id="Fill-31"></path>
                <path d="M227.552128,155.636934 C226.875577,155.636934 226.327399,155.086724 226.327399,154.407665 C226.327399,153.728605 226.875577,153.178395 227.552128,153.178395 C228.228679,153.178395 228.776857,153.728605 228.776857,154.407665 C228.776857,155.086724 228.228679,155.636934 227.552128,155.636934" id="Fill-33"></path>
                <path d="M228.580186,162.445043 C227.875743,162.445043 227.304679,161.871863 227.304679,161.164808 C227.304679,160.457754 227.875743,159.884214 228.580186,159.884214 C229.284628,159.884214 229.855692,160.457754 229.855692,161.164808 C229.855692,161.871863 229.284628,162.445043 228.580186,162.445043" id="Fill-35"></path>
                <path d="M229.241217,169.299918 C228.508526,169.299918 227.914577,168.703767 227.914577,167.968718 C227.914577,167.233309 228.508526,166.637158 229.241217,166.637158 C229.973909,166.637158 230.567501,167.233309 230.567501,167.968718 C230.567501,168.703767 229.973909,169.299918 229.241217,169.299918" id="Fill-37"></path>
                <path d="M229.55482,176.179056 C228.794236,176.179056 228.177402,175.560293 228.177402,174.796531 C228.177402,174.033127 228.794236,173.414365 229.55482,173.414365 C230.315403,173.414365 230.932238,174.033127 230.932238,174.796531 C230.932238,175.560293 230.315403,176.179056 229.55482,176.179056" id="Fill-39"></path>
                <path d="M229.525498,183.065946 C228.736665,183.065946 228.097303,182.424213 228.097303,181.632455 C228.097303,180.841057 228.736665,180.198965 229.525498,180.198965 C230.313973,180.198965 230.953335,180.841057 230.953335,181.632455 C230.953335,182.424213 230.313973,183.065946 229.525498,183.065946" id="Fill-41"></path>
                <path d="M229.079196,189.934998 C228.264259,189.934998 227.603799,189.27173 227.603799,188.454131 C227.603799,187.635814 228.264259,186.972906 229.079196,186.972906 C229.894132,186.972906 230.55495,187.635814 230.55495,188.454131 C230.55495,189.27173 229.894132,189.934998 229.079196,189.934998" id="Fill-43"></path>
                <path d="M228.204793,196.750895 C227.369474,196.750895 226.692565,196.071476 226.692565,195.233061 C226.692565,194.395004 227.369474,193.715226 228.204793,193.715226 C229.040112,193.715226 229.71702,194.395004 229.71702,195.233061 C229.71702,196.071476 229.040112,196.750895 228.204793,196.750895" id="Fill-45"></path>
                <path d="M226.904363,203.497235 C226.048662,203.497235 225.355304,202.801307 225.355304,201.942792 C225.355304,201.084277 226.048662,200.388349 226.904363,200.388349 C227.759707,200.388349 228.452707,201.084277 228.452707,201.942792 C228.452707,202.801307 227.759707,203.497235 226.904363,203.497235" id="Fill-47"></path>
                <path d="M225.182447,210.147064 C224.307079,210.147064 223.596915,209.434626 223.596915,208.555653 C223.596915,207.67704 224.307079,206.964601 225.182447,206.964601 C226.057816,206.964601 226.76798,207.67704 226.76798,208.555653 C226.76798,209.434626 226.057816,210.147064 225.182447,210.147064" id="Fill-49"></path>
                <path d="M223.047736,216.673608 C222.151627,216.673608 221.425372,215.94466 221.425372,215.045588 C221.425372,214.146516 222.151627,213.417568 223.047736,213.417568 C223.943486,213.417568 224.669384,214.146516 224.669384,215.045588 C224.669384,215.94466 223.943486,216.673608 223.047736,216.673608" id="Fill-51"></path>
                <path d="M220.509024,223.052962 C219.592533,223.052962 218.850187,222.307504 218.850187,221.388333 C218.850187,220.468803 219.592533,219.723345 220.509024,219.723345 C221.4248,219.723345 222.167504,220.468803 222.167504,221.388333 C222.167504,222.307504 221.4248,223.052962 220.509024,223.052962" id="Fill-53"></path>
                <path d="M217.578507,229.259931 C216.641991,229.259931 215.882838,228.497963 215.882838,227.558334 C215.882838,226.618705 216.641991,225.856738 217.578507,225.856738 C218.514307,225.856738 219.27346,226.618705 219.27346,227.558334 C219.27346,228.497963 218.514307,229.259931 217.578507,229.259931" id="Fill-55"></path>
                <path d="M214.26945,235.270827 C213.312909,235.270827 212.537307,234.492708 212.537307,233.532621 C212.537307,232.572535 213.312909,231.794057 214.26945,231.794057 C215.22599,231.794057 216.001592,232.572535 216.001592,233.532621 C216.001592,234.492708 215.22599,235.270827 214.26945,235.270827" id="Fill-57"></path>
                <path d="M210.596871,241.063792 C209.620306,241.063792 208.828255,240.269163 208.828255,239.288619 C208.828255,238.308433 209.620306,237.513446 210.596871,237.513446 C211.573436,237.513446 212.365487,238.308433 212.365487,239.288619 C212.365487,240.269163 211.573436,241.063792 210.596871,241.063792" id="Fill-59"></path>
                <path d="M206.57647,246.617507 C205.579523,246.617507 204.771023,245.806369 204.771023,244.805725 C204.771023,243.805082 205.579523,242.993584 206.57647,242.993584 C207.573417,242.993584 208.381917,243.805082 208.381917,244.805725 C208.381917,245.806369 207.573417,246.617507 206.57647,246.617507" id="Fill-61"></path>
                <path d="M202.224695,251.899276 C201.214517,251.899276 200.395647,251.07737 200.395647,250.063088 C200.395647,249.049165 201.214517,248.2269 202.224695,248.2269 C203.23523,248.2269 204.053743,249.049165 204.053743,250.063088 C204.053743,251.07737 203.23523,251.899276 202.224695,251.899276" id="Fill-63"></path>
                <path d="M197.559317,256.900627 C196.536981,256.900627 195.707741,256.068672 195.707741,255.042187 C195.707741,254.016061 196.536981,253.184105 197.559317,253.184105 C198.581653,253.184105 199.410893,254.016061 199.410893,255.042187 C199.410893,256.068672 198.581653,256.900627 197.559317,256.900627" id="Fill-65"></path>
                <path d="M192.598539,261.605303 C191.56333,261.605303 190.724792,260.763298 190.724792,259.72461 C190.724792,258.686281 191.56333,257.844276 192.598539,257.844276 C193.633032,257.844276 194.47157,258.686281 194.47157,259.72461 C194.47157,260.763298 193.633032,261.605303 192.598539,261.605303" id="Fill-67"></path>
                <path d="M187.36081,265.996075 C186.313443,265.996075 185.464894,265.144021 185.464894,264.09313 C185.464894,263.042598 186.313443,262.190543 187.36081,262.190543 C188.40782,262.190543 189.256727,263.042598 189.256727,264.09313 C189.256727,265.144021 188.40782,265.996075 187.36081,265.996075" id="Fill-69"></path>
                <path d="M181.866443,270.056506 C180.807276,270.056506 179.948714,269.194761 179.948714,268.131308 C179.948714,267.068573 180.807276,266.206469 181.866443,266.206469 C182.92561,266.206469 183.784172,267.068573 183.784172,268.131308 C183.784172,269.194761 182.92561,270.056506 181.866443,270.056506" id="Fill-71"></path>
                <path d="M176.135641,273.771557 C175.064315,273.771557 174.195741,272.899762 174.195741,271.824465 C174.195741,270.748809 175.064315,269.877015 176.135641,269.877015 C177.207323,269.877015 178.075898,270.748809 178.075898,271.824465 C178.075898,272.899762 177.207323,273.771557 176.135641,273.771557" id="Fill-73"></path>
                <path d="M170.19043,277.126871 C169.106947,277.126871 168.22836,276.245027 168.22836,275.157527 C168.22836,274.069668 169.106947,273.188183 170.19043,273.188183 C171.273913,273.188183 172.1525,274.069668 172.1525,275.157527 C172.1525,276.245027 171.273913,277.126871 170.19043,277.126871" id="Fill-75"></path>
                <path d="M164.052481,280.109959 C162.95684,280.109959 162.068241,279.218425 162.068241,278.118363 C162.068241,277.018301 162.95684,276.126766 164.052481,276.126766 C165.148122,276.126766 166.036721,277.018301 166.036721,278.118363 C166.036721,279.218425 165.148122,280.109959 164.052481,280.109959" id="Fill-77"></path>
                <path d="M157.745144,282.709623 C156.637345,282.709623 155.739091,281.808038 155.739091,280.695774 C155.739091,279.583509 156.637345,278.681925 157.745144,278.681925 C158.853658,278.681925 159.751554,279.583509 159.751554,280.695774 C159.751554,281.808038 158.853658,282.709623 157.745144,282.709623" id="Fill-79"></path>
                <path d="M151.292556,284.91653 C150.172242,284.91653 149.263976,284.004896 149.263976,282.880428 C149.263976,281.75596 150.172242,280.844327 151.292556,280.844327 C152.41287,280.844327 153.320779,281.75596 153.320779,282.880428 C153.320779,284.004896 152.41287,284.91653 151.292556,284.91653" id="Fill-81"></path>
                <path d="M144.718425,286.723431 C143.58631,286.723431 142.668032,285.801748 142.668032,284.665077 C142.668032,283.528406 143.58631,282.607082 144.718425,282.607082 C145.851254,282.607082 146.769176,283.528406 146.769176,284.665077 C146.769176,285.801748 145.851254,286.723431 144.718425,286.723431" id="Fill-83"></path>
                <path d="M138.048639,288.112559 C136.910804,288.112559 135.988949,287.186928 135.988949,286.045233 C135.988949,284.903537 136.910804,283.977547 138.048639,283.977547 C139.186475,283.977547 140.10833,284.903537 140.10833,286.045233 C140.10833,287.186928 139.186475,288.112559 138.048639,288.112559" id="Fill-85"></path>
                <path d="M131.308982,289.092745 C130.167213,289.092745 129.241782,288.163884 129.241782,287.017881 C129.241782,285.872238 130.167213,284.943017 131.308982,284.943017 C132.450394,284.943017 133.376182,285.872238 133.376182,287.017881 C133.376182,288.163884 132.450394,289.092745 131.308982,289.092745" id="Fill-87"></path>
                <path d="M124.521873,289.6665 C123.375813,289.6665 122.447164,288.734408 122.447164,287.584458 C122.447164,286.434507 123.375813,285.502057 124.521873,285.502057 C125.667218,285.502057 126.596224,286.434507 126.596224,287.584458 C126.596224,288.734408 125.667218,289.6665 124.521873,289.6665" id="Fill-89"></path>
                <path d="M117.713094,289.836839 C116.563458,289.836839 115.631591,288.901517 115.631591,287.74726 C115.631591,286.593361 116.563458,285.657681 117.713094,285.657681 C118.863088,285.657681 119.794955,286.593361 119.794955,287.74726 C119.794955,288.901517 118.863088,289.836839 117.713094,289.836839" id="Fill-91"></path>
                <path d="M110.907105,289.613561 C109.753178,289.613561 108.818093,288.67465 108.818093,287.516803 C108.818093,286.358598 109.753178,285.419687 110.907105,285.419687 C112.061032,285.419687 112.996117,286.358598 112.996117,287.516803 C112.996117,288.67465 112.061032,289.613561 110.907105,289.613561" id="Fill-93"></path>
                <path d="M104.125539,288.998459 C102.967678,288.998459 102.029017,288.056318 102.029017,286.894165 C102.029017,285.732011 102.967678,284.78987 104.125539,284.78987 C105.283399,284.78987 106.22206,285.732011 106.22206,286.894165 C106.22206,288.056318 105.283399,288.998459 104.125539,288.998459" id="Fill-95"></path>
                <path d="M97.3921746,287.988663 C96.2300229,287.988663 95.2877861,287.043292 95.2877861,285.877191 C95.2877861,284.71073 96.2300229,283.765359 97.3921746,283.765359 C98.5536111,283.765359 99.495848,284.71073 99.495848,285.877191 C99.495848,287.043292 98.5536111,287.988663 97.3921746,287.988663" id="Fill-97"></path>
                <path d="M90.7300774,286.583348 C89.5639923,286.583348 88.6188947,285.634746 88.6188947,284.464338 C88.6188947,283.293929 89.5639923,282.345328 90.7300774,282.345328 C91.8961625,282.345328 92.8412601,283.293929 92.8412601,284.464338 C92.8412601,285.634746 91.8961625,286.583348 90.7300774,286.583348" id="Fill-99"></path>
                <path d="M84.1622396,284.783015 C82.9925786,284.783015 82.0439053,283.830824 82.0439053,282.656468 C82.0439053,281.482111 82.9925786,280.53028 84.1622396,280.53028 C85.3326158,280.53028 86.2812892,281.482111 86.2812892,282.656468 C86.2812892,283.830824 85.3326158,284.783015 84.1622396,284.783015" id="Fill-101"></path>
                <path d="M77.7145147,282.590895 C76.5405627,282.590895 75.5886711,281.635474 75.5886711,280.45717 C75.5886711,279.278506 76.5405627,278.323444 77.7145147,278.323444 C78.8884667,278.323444 79.8403584,279.278506 79.8403584,280.45717 C79.8403584,281.635474 78.8884667,282.590895 77.7145147,282.590895" id="Fill-103"></path>
                <path d="M71.410682,280.012371 C70.232439,280.012371 69.2776867,279.05372 69.2776867,277.871109 C69.2776867,276.688856 70.232439,275.730205 71.410682,275.730205 C72.5889251,275.730205 73.544035,276.688856 73.544035,277.871109 C73.544035,279.05372 72.5889251,280.012371 71.410682,280.012371" id="Fill-105"></path>
                <path d="M65.2751647,277.054515 C64.0926307,277.054515 63.1346601,276.092634 63.1346601,274.906074 C63.1346601,273.719515 64.0926307,272.757634 65.2751647,272.757634 C66.4573412,272.757634 67.4156693,273.719515 67.4156693,274.906074 C67.4156693,276.092634 66.4573412,277.054515 65.2751647,277.054515" id="Fill-107"></path>
                <path d="M59.3310269,273.722135 C58.1470625,273.722135 57.1876616,272.759177 57.1876616,271.571182 C57.1876616,270.383187 58.1470625,269.420229 59.3310269,269.420229 C60.5146337,269.420229 61.4736771,270.383187 61.4736771,271.571182 C61.4736771,272.759177 60.5146337,273.722135 59.3310269,273.722135" id="Fill-109"></path>
                <path d="M53.600582,270.021548 C52.4212663,270.021548 51.4650836,269.061821 51.4650836,267.877774 C51.4650836,266.694085 52.4212663,265.734358 53.600582,265.734358 C54.7802554,265.734358 55.7364381,266.694085 55.7364381,267.877774 C55.7364381,269.061821 54.7802554,270.021548 53.600582,270.021548" id="Fill-111"></path>
                <path d="M48.1065367,265.97612 C46.9311543,265.97612 45.9781899,265.019623 45.9781899,263.839882 C45.9781899,262.660142 46.9311543,261.703645 48.1065367,261.703645 C49.281919,261.703645 50.2348834,262.660142 50.2348834,263.839882 C50.2348834,265.019623 49.281919,265.97612 48.1065367,265.97612" id="Fill-113"></path>
                <path d="M42.8681289,261.601535 C41.6970376,261.601535 40.7469339,260.648267 40.7469339,259.472834 C40.7469339,258.297042 41.6970376,257.343775 42.8681289,257.343775 C44.0392203,257.343775 44.989324,258.297042 44.989324,259.472834 C44.989324,260.648267 44.0392203,261.601535 42.8681289,261.601535" id="Fill-115"></path>
                <path d="M37.9045611,256.914912 C36.7370457,256.914912 35.791233,255.965234 35.791233,254.793749 C35.791233,253.621905 36.7370457,252.672226 37.9045611,252.672226 C39.071719,252.672226 40.0178893,253.621905 40.0178893,254.793749 C40.0178893,255.965234 39.071719,256.914912 37.9045611,256.914912" id="Fill-117"></path>
                <path d="M33.2322107,251.935382 C32.0686286,251.935382 31.1256766,250.988934 31.1256766,249.821397 C31.1256766,248.65386 32.0686286,247.707412 33.2322107,247.707412 C34.3950776,247.707412 35.3380296,248.65386 35.3380296,249.821397 C35.3380296,250.988934 34.3950776,251.935382 33.2322107,251.935382" id="Fill-119"></path>
                <path d="M28.865381,246.683224 C27.7064475,246.683224 26.7663562,245.740006 26.7663562,244.576776 C26.7663562,243.413187 27.7064475,242.469969 28.865381,242.469969 C30.0243144,242.469969 30.9640481,243.413187 30.9640481,244.576776 C30.9640481,245.740006 30.0243144,246.683224 28.865381,246.683224" id="Fill-121"></path>
                <path d="M24.8167305,241.1799 C23.6620881,241.1799 22.725215,240.239912 22.725215,239.08063 C22.725215,237.921348 23.6620881,236.981719 24.8167305,236.981719 C25.9713729,236.981719 26.908246,237.921348 26.908246,239.08063 C26.908246,240.239912 25.9713729,241.1799 24.8167305,241.1799" id="Fill-123"></path>
                <path d="M21.0959498,235.447806 C19.9448833,235.447806 19.0119437,234.511407 19.0119437,233.356073 C19.0119437,232.201098 19.9448833,231.26434 21.0959498,231.26434 C22.2470164,231.26434 23.179956,232.201098 23.179956,233.356073 C23.179956,234.511407 22.2470164,235.447806 21.0959498,235.447806" id="Fill-125"></path>
                <path d="M17.7100834,229.509948 C16.5633079,229.509948 15.6332289,228.57678 15.6332289,227.425752 C15.6332289,226.274725 16.5633079,225.341198 17.7100834,225.341198 C18.856859,225.341198 19.7865803,226.274725 19.7865803,227.425752 C19.7865803,228.57678 18.856859,229.509948 17.7100834,229.509948" id="Fill-127"></path>
                <path d="M14.6632435,223.388543 C13.5204014,223.388543 12.5942559,222.458605 12.5942559,221.311885 C12.5942559,220.164806 13.5204014,219.234868 14.6632435,219.234868 C15.8060856,219.234868 16.7322311,220.164806 16.7322311,221.311885 C16.7322311,222.458605 15.8060856,223.388543 14.6632435,223.388543" id="Fill-129"></path>
                <path d="M11.9583265,217.107459 C10.8194178,217.107459 9.89613297,216.180751 9.89613297,215.037979 C9.89613297,213.895207 10.8194178,212.968499 11.9583265,212.968499 C13.0972351,212.968499 14.02052,213.895207 14.02052,215.037979 C14.02052,216.180751 13.0972351,217.107459 11.9583265,217.107459" id="Fill-131"></path>
                <path d="M9.59454567,210.688769 C8.4602856,210.688769 7.54057663,209.76565 7.54057663,208.626825 C7.54057663,207.488001 8.4602856,206.564882 9.59454567,206.564882 C10.7295209,206.564882 11.6492299,207.488001 11.6492299,208.626825 C11.6492299,209.76565 10.7295209,210.688769 9.59454567,210.688769" id="Fill-133"></path>
                <path d="M7.56986285,204.142736 C6.44668793,204.142736 5.53591858,203.22859 5.53591858,202.100892 C5.53591858,200.973194 6.44668793,200.059048 7.56986285,200.059048 C8.69375294,200.059048 9.60416471,200.973194 9.60416471,202.100892 C9.60416471,203.22859 8.69375294,204.142736 7.56986285,204.142736" id="Fill-135"></path>
                <path d="M5.8793791,197.498937 C4.76836207,197.498937 3.86724752,196.59484 3.86724752,195.479345 C3.86724752,194.364209 4.76836207,193.460113 5.8793791,193.460113 C6.99039613,193.460113 7.89151068,194.364209 7.89151068,195.479345 C7.89151068,196.59484 6.99039613,197.498937 5.8793791,197.498937" id="Fill-137"></path>
                <path d="M4.51644334,190.779192 C3.41722663,190.779192 2.52648204,189.885145 2.52648204,188.782212 C2.52648204,187.67892 3.41722663,186.784873 4.51644334,186.784873 C5.61494489,186.784873 6.50604706,187.67892 6.50604706,188.782212 C6.50604706,189.885145 5.61494489,190.779192 4.51644334,190.779192" id="Fill-139"></path>
                <path d="M3.47265232,184.001519 C2.38595108,184.001519 1.5048613,183.117521 1.5048613,182.026791 C1.5048613,180.936061 2.38595108,180.052063 3.47265232,180.052063 C4.55899598,180.052063 5.44008576,180.936061 5.44008576,182.026791 C5.44008576,183.117521 4.55899598,184.001519 3.47265232,184.001519" id="Fill-141"></path>
                <path d="M2.7396743,177.182714 C1.66513096,177.182714 0.794411146,176.308407 0.794411146,175.230239 C0.794411146,174.152071 1.66513096,173.277764 2.7396743,173.277764 C3.81386006,173.277764 4.68457988,174.152071 4.68457988,175.230239 C4.68457988,176.308407 3.81386006,177.182714 2.7396743,177.182714" id="Fill-143"></path>
                <path d="M2.30703204,170.338786 C1.24500418,170.338786 0.383939164,169.474528 0.383939164,168.408563 C0.383939164,167.342598 1.24500418,166.478699 2.30703204,166.478699 C3.36905991,166.478699 4.23012492,167.342598 4.23012492,168.408563 C4.23012492,169.474528 3.36905991,170.338786 2.30703204,170.338786" id="Fill-145"></path>
                <path d="M2.16417678,163.48226 C1.11430681,163.48226 0.26325418,162.628052 0.26325418,161.574649 C0.26325418,160.520886 1.11430681,159.666678 2.16417678,159.666678 C3.21404675,159.666678 4.06438421,160.520886 4.06438421,161.574649 C4.06438421,162.628052 3.21404675,163.48226 2.16417678,163.48226" id="Fill-147"></path>
                <path d="M2.33181269,156.626308 C1.29410062,156.626308 0.453060372,155.78215 0.453060372,154.740949 C0.453060372,153.699749 1.29410062,152.85559 2.33181269,152.85559 C3.3688096,152.85559 4.20984985,153.699749 4.20984985,154.740949 C4.20984985,155.78215 3.3688096,156.626308 2.33181269,156.626308" id="Fill-149"></path>
                <path d="M2.83257492,149.786866 C1.80737833,149.786866 0.976350464,148.952757 0.976350464,147.92376 C0.976350464,146.894762 1.80737833,146.060653 2.83257492,146.060653 C3.85741393,146.060653 4.68808421,146.894762 4.68808421,147.92376 C4.68808421,148.952757 3.85741393,149.786866 2.83257492,149.786866" id="Fill-151"></path>
                <path d="M3.65598622,142.978937 C2.64330511,142.978937 1.82228963,142.154877 1.82228963,141.138442 C1.82228963,140.121647 2.64330511,139.297588 3.65598622,139.297588 C4.66902492,139.297588 5.4900404,140.121647 5.4900404,141.138442 C5.4900404,142.154877 4.66902492,142.978937 3.65598622,142.978937" id="Fill-153"></path>
                <path d="M4.79335728,136.216769 C3.79283406,136.216769 2.98218854,135.402759 2.98218854,134.398526 C2.98218854,133.394293 3.79283406,132.579925 4.79335728,132.579925 C5.7938805,132.579925 6.60488359,133.394293 6.60488359,134.398526 C6.60488359,135.402759 5.7938805,136.216769 4.79335728,136.216769" id="Fill-155"></path>
                <path d="M6.23521207,129.499608 C5.25435604,129.499608 4.45908669,128.701749 4.45908669,127.717256 C4.45908669,126.733123 5.25435604,125.935264 6.23521207,125.935264 C7.21571053,125.935264 8.01062229,126.733123 8.01062229,127.717256 C8.01062229,128.701749 7.21571053,129.499608 6.23521207,129.499608" id="Fill-157"></path>
                <path d="M7.97214613,122.852865 C7.01167245,122.852865 6.2332096,122.071516 6.2332096,121.107481 C6.2332096,120.143806 7.01167245,119.362457 7.97214613,119.362457 C8.93261981,119.362457 9.71072508,120.143806 9.71072508,121.107481 C9.71072508,122.071516 8.93261981,122.852865 7.97214613,122.852865" id="Fill-159"></path>
                <path d="M9.99650712,116.288887 C9.05677337,116.288887 8.29475944,115.524048 8.29475944,114.58083 C8.29475944,113.637254 9.05677337,112.872415 9.99650712,112.872415 C10.9362409,112.872415 11.6982548,113.637254 11.6982548,114.58083 C11.6982548,115.524048 10.9362409,116.288887 9.99650712,116.288887" id="Fill-161"></path>
                <path d="M12.3001779,109.818837 C11.3804689,109.818837 10.6352615,109.070507 10.6352615,108.147748 C10.6352615,107.224629 11.3804689,106.4763 12.3001779,106.4763 C13.2195293,106.4763 13.9650943,107.224629 13.9650943,108.147748 C13.9650943,109.070507 13.2195293,109.818837 12.3001779,109.818837" id="Fill-163"></path>
                <path d="M14.87522,103.453337 C13.9762509,103.453337 13.2471348,102.721517 13.2471348,101.819215 C13.2471348,100.916554 13.9762509,100.185094 14.87522,100.185094 C15.7749042,100.185094 16.5036627,100.916554 16.5036627,101.819215 C16.5036627,102.721517 15.7749042,103.453337 14.87522,103.453337" id="Fill-165"></path>
                <path d="M17.7142672,97.204052 C16.8349653,97.204052 16.1226557,96.4891015 16.1226557,95.6068985 C16.1226557,94.7246955 16.8349653,94.009745 17.7142672,94.009745 C18.5928539,94.009745 19.3051635,94.7246955 19.3051635,95.6068985 C19.3051635,96.4891015 18.5928539,97.204052 17.7142672,97.204052" id="Fill-167"></path>
                <path d="M20.8092381,91.0791658 C19.9506762,91.0791658 19.2548155,90.3807252 19.2548155,89.5189802 C19.2548155,88.6572351 19.9506762,87.9587946 20.8092381,87.9587946 C21.6678,87.9587946 22.3636607,88.6572351 22.3636607,89.5189802 C22.3636607,90.3807252 21.6678,91.0791658 20.8092381,91.0791658" id="Fill-169"></path>
                <path d="M24.1535889,85.0884406 C23.3154093,85.0884406 22.6359975,84.4065099 22.6359975,83.5652228 C22.6359975,82.7239356 23.3154093,82.042005 24.1535889,82.042005 C24.9917684,82.042005 25.6711802,82.7239356 25.6711802,83.5652228 C25.6711802,84.4065099 24.9917684,85.0884406 24.1535889,85.0884406" id="Fill-171"></path>
                <path d="M27.7399175,79.2410644 C26.9221203,79.2410644 26.2591574,78.5756436 26.2591574,77.7548144 C26.2591574,76.9339851 26.9221203,76.2685644 27.7399175,76.2685644 C28.5577147,76.2685644 29.2206776,76.9339851 29.2206776,77.7548144 C29.2206776,78.5756436 28.5577147,79.2410644 27.7399175,79.2410644" id="Fill-173"></path>
                <path d="M31.5602141,73.5371089 C30.7678054,73.5371089 30.1252249,72.892146 30.1252249,72.0967995 C30.1252249,71.301453 30.7678054,70.6564901 31.5602141,70.6564901 C32.3529803,70.6564901 32.9955608,71.301453 32.9955608,72.0967995 C32.9955608,72.892146 32.3529803,73.5371089 31.5602141,73.5371089" id="Fill-175"></path>
                <path d="M35.60747,67.9885619 C34.8433105,67.9885619 34.2236155,67.3665693 34.2236155,66.5995767 C34.2236155,65.8325842 34.8433105,65.2105916 35.60747,65.2105916 C36.3716294,65.2105916 36.9913245,65.8325842 36.9913245,66.5995767 C36.9913245,67.3665693 36.3716294,67.9885619 35.60747,67.9885619" id="Fill-177"></path>
                <path d="M39.8733534,62.6090978 C39.1370856,62.6090978 38.5406336,62.0104344 38.5406336,61.2714369 C38.5406336,60.5327983 39.1370856,59.933776 39.8733534,59.933776 C40.6096212,59.933776 41.2060732,60.5327983 41.2060732,61.2714369 C41.2060732,62.0104344 40.6096212,62.6090978 39.8733534,62.6090978" id="Fill-179"></path>
                <path d="M44.3501763,57.4065408 C43.6421577,57.4065408 43.0685912,56.8308478 43.0685912,56.1202042 C43.0685912,55.4099196 43.6421577,54.8342265 44.3501763,54.8342265 C45.0578373,54.8342265 45.6314039,55.4099196 45.6314039,56.1202042 C45.6314039,56.8308478 45.0578373,57.4065408 44.3501763,57.4065408" id="Fill-181"></path>
                <path d="M49.0287845,52.3882847 C48.3493728,52.3882847 47.7983341,51.8355619 47.7983341,51.1532723 C47.7983341,50.4713416 48.3493728,49.9186188 49.0287845,49.9186188 C49.7081963,49.9186188 50.2588774,50.4713416 50.2588774,51.1532723 C50.2588774,51.8355619 49.7081963,52.3882847 49.0287845,52.3882847" id="Fill-183"></path>
                <path d="M53.900882,47.5610408 C53.2500771,47.5610408 52.7219238,47.0312884 52.7219238,46.3773527 C52.7219238,45.723776 53.2500771,45.1940235 53.900882,45.1940235 C54.5524022,45.1940235 55.0801978,45.723776 55.0801978,46.3773527 C55.0801978,47.0312884 54.5524022,47.5610408 53.900882,47.5610408" id="Fill-185"></path>
                <path d="M58.9580656,42.9311262 C58.3351523,42.9311262 57.8302421,42.4243441 57.8302421,41.7987624 C57.8302421,41.1735396 58.3351523,40.6667574 58.9580656,40.6667574 C59.5809789,40.6667574 60.0858892,41.1735396 60.0858892,41.7987624 C60.0858892,42.4243441 59.5809789,42.9311262 58.9580656,42.9311262" id="Fill-187"></path>
                <path d="M64.1905375,38.5040681 C63.5958734,38.5040681 63.113491,38.0202562 63.113491,37.4233874 C63.113491,36.8261597 63.5958734,36.3423478 64.1905375,36.3423478 C64.7852015,36.3423478 65.2675839,36.8261597 65.2675839,37.4233874 C65.2675839,38.0202562 64.7852015,38.5040681 64.1905375,38.5040681" id="Fill-189"></path>
                <path d="M69.5885354,34.2718626 C69.0296299,34.2718626 68.5758543,33.8167636 68.5758543,33.255427 C68.5758543,32.6940903 69.0296299,32.2389913 69.5885354,32.2389913 C70.1477986,32.2389913 70.6012166,32.6940903 70.6012166,33.255427 C70.6012166,33.8167636 70.1477986,34.2718626 69.5885354,34.2718626" id="Fill-191"></path>
                <path d="M75.1429769,30.2505891 C74.6198299,30.2505891 74.1960915,29.8245619 74.1960915,29.2994752 C74.1960915,28.7743886 74.6198299,28.3483614 75.1429769,28.3483614 C75.6668392,28.3483614 76.0905776,28.7743886 76.0905776,29.2994752 C76.0905776,29.8245619 75.6668392,30.2505891 75.1429769,30.2505891" id="Fill-193"></path>
                <path d="M80.8440998,26.4448057 C80.3567113,26.4448057 79.9615797,26.0482092 79.9615797,25.5590136 C79.9615797,25.070177 80.3567113,24.6735804 80.8440998,24.6735804 C81.3314884,24.6735804 81.7262624,25.070177 81.7262624,25.5590136 C81.7262624,26.0482092 81.3314884,26.4448057 80.8440998,26.4448057" id="Fill-195"></path>
                <path d="M86.6813912,22.8571683 C86.2297611,22.8571683 85.8643091,22.4900025 85.8643091,22.0370569 C85.8643091,21.5841114 86.2297611,21.2165866 86.6813912,21.2165866 C87.1326636,21.2165866 87.4984732,21.5841114 87.4984732,22.0370569 C87.4984732,22.4900025 87.1326636,22.8571683 86.6813912,22.8571683" id="Fill-197"></path>
                <path d="M92.644767,19.4895792 C92.2296107,19.4895792 91.8927655,19.1514851 91.8927655,18.7347896 C91.8927655,18.3180941 92.2296107,17.98 92.644767,17.98 C93.0599234,17.98 93.3967686,18.3180941 93.3967686,18.7347896 C93.3967686,19.1514851 93.0599234,19.4895792 92.644767,19.4895792" id="Fill-199"></path>
                <path d="M98.7233568,16.3435817 C98.343959,16.3435817 98.0367933,16.0349183 98.0367933,15.6541139 C98.0367933,15.2736683 98.343959,14.965005 98.7233568,14.965005 C99.1027546,14.965005 99.4102779,15.2736683 99.4102779,15.6541139 C99.4102779,16.0349183 99.1027546,16.3435817 98.7233568,16.3435817" id="Fill-201"></path>
                <path d="M104.909151,13.4067574 C104.572663,13.4067574 104.299468,13.1329084 104.299468,12.7948144 C104.299468,12.4570792 104.572663,12.1832302 104.909151,12.1832302 C105.245638,12.1832302 105.518476,12.4570792 105.518476,12.7948144 C105.518476,13.1329084 105.245638,13.4067574 104.909151,13.4067574" id="Fill-203"></path>
                <path d="M111.191349,10.6889765 C110.898487,10.6889765 110.660693,10.4506597 110.660693,10.1563527 C110.660693,9.86204579 110.898487,9.62372896 111.191349,9.62372896 C111.484569,9.62372896 111.722006,9.86204579 111.722006,10.1563527 C111.722006,10.4506597 111.484569,10.6889765 111.191349,10.6889765" id="Fill-205"></path>
                <path d="M117.561514,8.1908849 C117.31192,8.1908849 117.109526,7.98774134 117.109526,7.73758045 C117.109526,7.48706064 117.31192,7.28391708 117.561514,7.28391708 C117.810751,7.28391708 118.013144,7.48706064 118.013144,7.73758045 C118.013144,7.98774134 117.810751,8.1908849 117.561514,8.1908849" id="Fill-207"></path>
                <path d="M124.009239,5.91054455 C123.80327,5.91054455 123.636278,5.74293317 123.636278,5.5362005 C123.636278,5.32946782 123.80327,5.16185644 124.009239,5.16185644 C124.215208,5.16185644 124.3822,5.32946782 124.3822,5.5362005 C124.3822,5.74293317 124.215208,5.91054455 124.009239,5.91054455" id="Fill-209"></path>
                <path d="M130.526765,3.83708045 C130.36907,3.83708045 130.241054,3.70894926 130.241054,3.55066955 C130.241054,3.39238985 130.36907,3.26389975 130.526765,3.26389975 C130.684102,3.26389975 130.812117,3.39238985 130.812117,3.55066955 C130.812117,3.70894926 130.684102,3.83708045 130.526765,3.83708045" id="Fill-211"></path>
                <path d="M137.1044,1.96812376 C136.99927,1.96812376 136.914165,1.88270297 136.914165,1.77718317 C136.914165,1.67166337 136.99927,1.58624257 137.1044,1.58624257 C137.20953,1.58624257 137.294635,1.67166337 137.294635,1.77718317 C137.294635,1.88270297 137.20953,1.96812376 137.1044,1.96812376" id="Fill-213"></path>
                <path d="M143.734029,0.308160891 C143.681464,0.308160891 143.638553,0.265450495 143.638553,0.212690594 C143.638553,0.159930693 143.681464,0.117220297 143.734029,0.117220297 C143.786594,0.117220297 143.829504,0.159930693 143.829504,0.212690594 C143.829504,0.265450495 143.786594,0.308160891 143.734029,0.308160891" id="Fill-215"></path>
            </g>
            <g id="Group-436">
                <path d="M175.57198,78.1433664 C175.537258,78.1433664 175.508622,78.1151587 175.508622,78.0805239 C175.508622,78.0455321 175.537258,78.0173244 175.57198,78.0173244 C175.607059,78.0173244 175.635337,78.0455321 175.635337,78.0805239 C175.635337,78.1151587 175.607059,78.1433664 175.57198,78.1433664" id="Fill-218" fill="#E60000"></path>
                <path d="M182.342726,81.0675053 C182.272924,81.0675053 182.21601,81.0110898 182.21601,80.9414632 C182.21601,80.8721937 182.272924,80.8157783 182.342726,80.8157783 C182.412169,80.8157783 182.469084,80.8721937 182.469084,80.9414632 C182.469084,81.0110898 182.412169,81.0675053 182.342726,81.0675053" id="Fill-220" fill="#E60000"></path>
                <path d="M188.931309,84.3874803 C188.826428,84.3874803 188.741951,84.3028572 188.741951,84.1985958 C188.741951,84.0943344 188.826428,84.0097113 188.931309,84.0097113 C189.035831,84.0097113 189.120666,84.0943344 189.120666,84.1985958 C189.120666,84.3028572 189.035831,84.3874803 188.931309,84.3874803" id="Fill-222" fill="#E60000"></path>
                <path d="M195.322766,88.072513 C195.186385,88.072513 195.075419,87.9618245 195.075419,87.8257848 C195.075419,87.6893881 195.186385,87.5786996 195.322766,87.5786996 C195.459862,87.5786996 195.570112,87.6893881 195.570112,87.8257848 C195.570112,87.9618245 195.459862,88.072513 195.322766,88.072513" id="Fill-224" fill="#E60000"></path>
                <path d="M201.496086,92.1107132 C201.330353,92.1107132 201.19612,91.9768159 201.19612,91.8114973 C201.19612,91.6465358 201.330353,91.5126385 201.496086,91.5126385 C201.661461,91.5126385 201.795694,91.6465358 201.795694,91.8114973 C201.795694,91.9768159 201.661461,92.1107132 201.496086,92.1107132" id="Fill-226" fill="#E60000"></path>
                <path d="M207.423634,96.5020453 C207.229265,96.5020453 207.071765,96.3449391 207.071765,96.1506987 C207.071765,95.9568154 207.229265,95.7993522 207.423634,95.7993522 C207.618361,95.7993522 207.775503,95.9568154 207.775503,96.1506987 C207.775503,96.3449391 207.618361,96.5020453 207.423634,96.5020453" id="Fill-228" fill="#E60000"></path>
                <path d="M213.078564,101.24276 C212.855201,101.24276 212.674076,101.062088 212.674076,100.839283 C212.674076,100.616478 212.855201,100.435806 213.078564,100.435806 C213.301928,100.435806 213.483053,100.616478 213.483053,100.839283 C213.483053,101.062088 213.301928,101.24276 213.078564,101.24276" id="Fill-230" fill="#E60000"></path>
                <path d="M218.429018,106.326074 C218.177376,106.326074 217.973342,106.122193 217.973342,105.87118 C217.973342,105.61981 218.177376,105.416286 218.429018,105.416286 C218.681018,105.416286 218.88541,105.61981 218.88541,105.87118 C218.88541,106.122193 218.681018,106.326074 218.429018,106.326074" id="Fill-232" fill="#E60000"></path>
                <path d="M223.442458,111.733811 C223.166833,111.733811 222.943111,111.510649 222.943111,111.235713 C222.943111,110.96042 223.166833,110.737615 223.442458,110.737615 C223.718441,110.737615 223.942162,110.96042 223.942162,111.235713 C223.942162,111.510649 223.718441,111.733811 223.442458,111.733811" id="Fill-234" fill="#E60000"></path>
                <path d="M228.088887,117.461688 C227.788921,117.461688 227.546228,117.219245 227.546228,116.920386 C227.546228,116.621527 227.788921,116.379441 228.088887,116.379441 C228.388495,116.379441 228.631546,116.621527 228.631546,116.920386 C228.631546,117.219245 228.388495,117.461688 228.088887,117.461688" id="Fill-236" fill="#E60000"></path>
                <path d="M232.338201,123.49071 C232.01461,123.49071 231.75223,123.228985 231.75223,122.90656 C231.75223,122.583779 232.01461,122.322054 232.338201,122.322054 C232.661792,122.322054 232.924173,122.583779 232.924173,122.90656 C232.924173,123.228985 232.661792,123.49071 232.338201,123.49071" id="Fill-238" fill="#E60000"></path>
                <path d="M236.165916,129.796809 C235.818343,129.796809 235.536632,129.515803 235.536632,129.169456 C235.536632,128.822751 235.818343,128.542102 236.165916,128.542102 C236.513132,128.542102 236.794485,128.822751 236.794485,129.169456 C236.794485,129.515803 236.513132,129.796809 236.165916,129.796809" id="Fill-240" fill="#E60000"></path>
                <path d="M239.551809,136.351136 C239.18061,136.351136 238.87957,136.050849 238.87957,135.680579 C238.87957,135.310308 239.18061,135.010021 239.551809,135.010021 C239.923007,135.010021 240.224405,135.310308 240.224405,135.680579 C240.224405,136.050849 239.923007,136.351136 239.551809,136.351136" id="Fill-242" fill="#E60000"></path>
                <path d="M242.483957,143.120021 C242.088776,143.120021 241.768048,142.800452 241.768048,142.406259 C241.768048,142.012065 242.088776,141.692854 242.483957,141.692854 C242.879139,141.692854 243.199151,142.012065 243.199151,142.406259 C243.199151,142.800452 242.879139,143.120021 242.483957,143.120021" id="Fill-244" fill="#E60000"></path>
                <path d="M244.956779,150.0614 C244.542984,150.0614 244.207222,149.726835 244.207222,149.313718 C244.207222,148.900957 244.542984,148.566392 244.956779,148.566392 C245.370574,148.566392 245.706336,148.900957 245.706336,149.313718 C245.706336,149.726835 245.370574,150.0614 244.956779,150.0614" id="Fill-246" fill="#E60000"></path>
                <path d="M246.973781,157.149174 C246.541014,157.149174 246.190219,156.799256 246.190219,156.367928 C246.190219,155.936243 246.541014,155.586325 246.973781,155.586325 C247.406548,155.586325 247.756986,155.936243 247.756986,156.367928 C247.756986,156.799256 247.406548,157.149174 246.973781,157.149174" id="Fill-248" fill="#E60000"></path>
                <path d="M248.54334,164.349458 C248.091602,164.349458 247.72613,163.984543 247.72613,163.534291 C247.72613,163.084039 248.091602,162.718767 248.54334,162.718767 C248.995079,162.718767 249.360551,163.084039 249.360551,163.534291 C249.360551,163.984543 248.995079,164.349458 248.54334,164.349458" id="Fill-250" fill="#E60000"></path>
                <path d="M249.680812,171.629937 C249.21046,171.629937 248.829239,171.249669 248.829239,170.780849 C248.829239,170.31203 249.21046,169.931762 249.680812,169.931762 C250.150449,169.931762 250.53167,170.31203 250.53167,170.780849 C250.53167,171.249669 250.150449,171.629937 249.680812,171.629937" id="Fill-252" fill="#E60000"></path>
                <path d="M250.405098,178.963796 C249.91649,178.963796 249.519876,178.568532 249.519876,178.080788 C249.519876,177.593045 249.91649,177.19778 250.405098,177.19778 C250.893706,177.19778 251.290319,177.593045 251.290319,178.080788 C251.290319,178.568532 250.893706,178.963796 250.405098,178.963796" id="Fill-254" fill="#E60000"></path>
                <path d="M250.739284,186.325685 C250.231347,186.325685 249.820057,185.915424 249.820057,185.408756 C249.820057,184.902446 250.231347,184.492185 250.739284,184.492185 C251.246864,184.492185 251.657795,184.902446 251.657795,185.408756 C251.657795,185.915424 251.246864,186.325685 250.739284,186.325685" id="Fill-256" fill="#E60000"></path>
                <path d="M250.683372,193.695286 C250.15682,193.695286 249.730497,193.269671 249.730497,192.744437 C249.730497,192.219559 250.15682,191.793944 250.683372,191.793944 C251.209923,191.793944 251.636247,192.219559 251.636247,192.744437 C251.636247,193.269671 251.209923,193.695286 250.683372,193.695286" id="Fill-258" fill="#E60000"></path>
                <path d="M250.155174,201.0435 C249.611083,201.0435 249.170441,200.603602 249.170441,200.061229 C249.170441,199.518856 249.611083,199.078958 250.155174,199.078958 C250.698907,199.078958 251.139907,199.518856 251.139907,200.061229 C251.139907,200.603602 250.698907,201.0435 250.155174,201.0435" id="Fill-260" fill="#E60000"></path>
                <path d="M249.144561,208.333334 C248.586868,208.333334 248.135129,207.882725 248.135129,207.326783 C248.135129,206.770841 248.586868,206.320232 249.144561,206.320232 C249.701896,206.320232 250.153277,206.770841 250.153277,207.326783 C250.153277,207.882725 249.701896,208.333334 249.144561,208.333334" id="Fill-262" fill="#E60000"></path>
                <path d="M247.654718,215.541116 C247.083781,215.541116 246.621303,215.079438 246.621303,214.510285 C246.621303,213.940775 247.083781,213.479097 247.654718,213.479097 C248.225656,213.479097 248.688491,213.940775 248.688491,214.510285 C248.688491,215.079438 248.225656,215.541116 247.654718,215.541116" id="Fill-264" fill="#E60000"></path>
                <path d="M245.694022,222.635317 C245.10984,222.635317 244.635909,222.162927 244.635909,221.579849 C244.635909,220.997128 245.10984,220.524381 245.694022,220.524381 C246.278562,220.524381 246.752136,220.997128 246.752136,221.579849 C246.752136,222.162927 246.278562,222.635317 245.694022,222.635317" id="Fill-266" fill="#E60000"></path>
                <path d="M243.272925,229.586123 C242.674783,229.586123 242.19047,229.102664 242.19047,228.506375 C242.19047,227.910085 242.674783,227.426627 243.272925,227.426627 C243.870709,227.426627 244.35538,227.910085 244.35538,228.506375 C244.35538,229.102664 243.870709,229.586123 243.272925,229.586123" id="Fill-268" fill="#E60000"></path>
                <path d="M240.404743,236.364862 C239.793714,236.364862 239.297947,235.870691 239.297947,235.260834 C239.297947,234.650976 239.793714,234.156449 240.404743,234.156449 C241.016487,234.156449 241.511896,234.650976 241.511896,235.260834 C241.511896,235.870691 241.016487,236.364862 240.404743,236.364862" id="Fill-270" fill="#E60000"></path>
                <path d="M237.105905,242.944897 C236.481274,242.944897 235.974411,242.439658 235.974411,241.816232 C235.974411,241.193163 236.481274,240.687924 237.105905,240.687924 C237.730536,240.687924 238.237399,241.193163 238.237399,241.816232 C238.237399,242.439658 237.730536,242.944897 237.105905,242.944897" id="Fill-272" fill="#E60000"></path>
                <path d="M233.393523,249.301128 C232.75529,249.301128 232.237687,248.78482 232.237687,248.148183 C232.237687,247.511546 232.75529,246.995238 233.393523,246.995238 C234.031756,246.995238 234.549358,247.511546 234.549358,248.148183 C234.549358,248.78482 234.031756,249.301128 233.393523,249.301128" id="Fill-274" fill="#E60000"></path>
                <path d="M229.286495,255.409988 C228.635018,255.409988 228.106319,254.882968 228.106319,254.232762 C228.106319,253.582557 228.635018,253.055537 229.286495,253.055537 C229.938331,253.055537 230.46703,253.582557 230.46703,254.232762 C230.46703,254.882968 229.938331,255.409988 229.286495,255.409988" id="Fill-276" fill="#E60000"></path>
                <path d="M224.805406,261.250053 C224.140326,261.250053 223.600531,260.711964 223.600531,260.048548 C223.600531,259.384774 224.140326,258.846685 224.805406,258.846685 C225.470485,258.846685 226.009923,259.384774 226.009923,260.048548 C226.009923,260.711964 225.470485,261.250053 224.805406,261.250053" id="Fill-278" fill="#E60000"></path>
                <path d="M219.970585,266.792831 C219.295841,266.792831 218.749602,266.247601 218.749602,265.574901 C218.749602,264.902558 219.295841,264.357328 219.970585,264.357328 C220.644614,264.357328 221.19121,264.902558 221.19121,265.574901 C221.19121,266.247601 220.644614,266.792831 219.970585,266.792831" id="Fill-280" fill="#E60000"></path>
                <path d="M214.803297,272.026537 C214.121035,272.026537 213.567638,271.474881 213.567638,270.793968 C213.567638,270.113413 214.121035,269.561399 214.803297,269.561399 C215.485558,269.561399 216.038598,270.113413 216.038598,270.793968 C216.038598,271.474881 215.485558,272.026537 214.803297,272.026537" id="Fill-282" fill="#E60000"></path>
                <path d="M209.325626,276.935035 C208.634773,276.935035 208.07529,276.376593 208.07529,275.687826 C208.07529,274.999058 208.634773,274.440617 209.325626,274.440617 C210.016478,274.440617 210.575603,274.999058 210.575603,275.687826 C210.575603,276.376593 210.016478,276.935035 209.325626,276.935035" id="Fill-284" fill="#E60000"></path>
                <path d="M203.559909,281.502361 C202.861181,281.502361 202.294539,280.937136 202.294539,280.240513 C202.294539,279.543533 202.861181,278.978308 203.559909,278.978308 C204.258278,278.978308 204.82492,279.543533 204.82492,280.240513 C204.82492,280.937136 204.258278,281.502361 203.559909,281.502361" id="Fill-286" fill="#E60000"></path>
                <path d="M197.528518,285.7137 C196.821557,285.7137 196.24883,285.142047 196.24883,284.436855 C196.24883,283.732019 196.821557,283.160367 197.528518,283.160367 C198.235478,283.160367 198.808563,283.732019 198.808563,284.436855 C198.808563,285.142047 198.235478,285.7137 197.528518,285.7137" id="Fill-288" fill="#E60000"></path>
                <path d="M191.255221,289.555481 C190.540028,289.555481 189.960499,288.977402 189.960499,288.263997 C189.960499,287.550592 190.540028,286.972513 191.255221,286.972513 C191.970414,286.972513 192.549943,287.550592 192.549943,288.263997 C192.549943,288.977402 191.970414,289.555481 191.255221,289.555481" id="Fill-290" fill="#E60000"></path>
                <path d="M184.763107,293.01546 C184.039681,293.01546 183.453709,292.430596 183.453709,291.709336 C183.453709,290.988076 184.039681,290.403212 184.763107,290.403212 C185.486175,290.403212 186.072505,290.988076 186.072505,291.709336 C186.072505,292.430596 185.486175,293.01546 184.763107,293.01546" id="Fill-292" fill="#E60000"></path>
                <path d="M178.076265,296.082886 C177.344964,296.082886 176.752191,295.491596 176.752191,294.762123 C176.752191,294.032294 177.344964,293.441003 178.076265,293.441003 C178.807566,293.441003 179.400339,294.032294 179.400339,294.762123 C179.400339,295.491596 178.807566,296.082886 178.076265,296.082886" id="Fill-294" fill="#E60000"></path>
                <path d="M171.219539,298.748443 C170.480005,298.748443 169.880789,298.150368 169.880789,297.41304 C169.880789,296.675355 170.480005,296.077281 171.219539,296.077281 C171.958715,296.077281 172.558289,296.675355 172.558289,297.41304 C172.558289,298.150368 171.958715,298.748443 171.219539,298.748443" id="Fill-296" fill="#E60000"></path>
                <path d="M164.217411,301.004987 C163.469644,301.004987 162.863627,300.400486 162.863627,299.654588 C162.863627,298.908691 163.469644,298.304189 164.217411,298.304189 C164.965178,298.304189 165.571195,298.908691 165.571195,299.654588 C165.571195,300.400486 164.965178,301.004987 164.217411,301.004987" id="Fill-298" fill="#E60000"></path>
                <path d="M157.095046,302.84695 C156.339404,302.84695 155.726944,302.235664 155.726944,301.481912 C155.726944,300.727802 156.339404,300.116873 157.095046,300.116873 C157.850688,300.116873 158.463506,300.727802 158.463506,301.481912 C158.463506,302.235664 157.850688,302.84695 157.095046,302.84695" id="Fill-300" fill="#E60000"></path>
                <path d="M149.877895,304.262477 C149.119031,304.262477 148.503349,303.648692 148.503349,302.891368 C148.503349,302.134045 149.119031,301.52026 149.877895,301.52026 C150.637116,301.52026 151.252798,302.134045 151.252798,302.891368 C151.252798,303.648692 150.637116,304.262477 149.877895,304.262477" id="Fill-302" fill="#E60000"></path>
                <path d="M142.592267,305.257709 C141.83054,305.257709 141.21271,304.641781 141.21271,303.881602 C141.21271,303.121779 141.83054,302.505494 142.592267,302.505494 C143.354352,302.505494 143.971824,303.121779 143.971824,303.881602 C143.971824,304.641781 143.354352,305.257709 142.592267,305.257709" id="Fill-304" fill="#E60000"></path>
                <path d="M135.260499,305.835681 C134.49555,305.835681 133.876289,305.217611 133.876289,304.454932 C133.876289,303.692253 134.49555,303.073826 135.260499,303.073826 C136.02509,303.073826 136.644709,303.692253 136.644709,304.454932 C136.644709,305.217611 136.02509,305.835681 135.260499,305.835681" id="Fill-306" fill="#E60000"></path>
                <path d="M127.907755,306 C127.1403,306 126.518533,305.379431 126.518533,304.614252 C126.518533,303.848716 127.1403,303.228504 127.907755,303.228504 C128.674851,303.228504 129.296976,303.848716 129.296976,304.614252 C129.296976,305.379431 128.674851,306 127.907755,306" id="Fill-308" fill="#E60000"></path>
                <path d="M120.55884,305.761056 C119.78888,305.761056 119.164249,305.138344 119.164249,304.370309 C119.164249,303.602274 119.78888,302.979562 120.55884,302.979562 C121.328801,302.979562 121.953073,303.602274 121.953073,304.370309 C121.953073,305.138344 121.328801,305.761056 120.55884,305.761056" id="Fill-310" fill="#E60000"></path>
                <path d="M113.233014,305.119991 C112.460548,305.119991 111.834128,304.495137 111.834128,303.724603 C111.834128,302.953711 112.460548,302.328857 113.233014,302.328857 C114.005838,302.328857 114.632259,302.953711 114.632259,303.724603 C114.632259,304.495137 114.005838,305.119991 113.233014,305.119991" id="Fill-312" fill="#E60000"></path>
                <path d="M105.955082,304.073485 C105.179753,304.073485 104.551185,303.446489 104.551185,302.673098 C104.551185,301.89935 105.179753,301.272354 105.955082,301.272354 C106.73077,301.272354 107.359338,301.89935 107.359338,302.673098 C107.359338,303.446489 106.73077,304.073485 105.955082,304.073485" id="Fill-314" fill="#E60000"></path>
                <path d="M98.7484551,302.619611 C97.9702619,302.619611 97.339546,301.990472 97.339546,301.214224 C97.339546,300.437977 97.9702619,299.808838 98.7484551,299.808838 C99.5266483,299.808838 100.157722,300.437977 100.157722,301.214224 C100.157722,301.990472 99.5266483,302.619611 98.7484551,302.619611" id="Fill-316" fill="#E60000"></path>
                <path d="M91.6372227,300.758474 C90.8565239,300.758474 90.2233023,300.126835 90.2233023,299.348088 C90.2233023,298.569342 90.8565239,297.93806 91.6372227,297.93806 C92.4182795,297.93806 93.0511432,298.569342 93.0511432,299.348088 C93.0511432,300.126835 92.4182795,300.758474 91.6372227,300.758474" id="Fill-318" fill="#E60000"></path>
                <path d="M84.6459409,298.491646 C83.8627364,298.491646 83.2270091,297.858222 83.2270091,297.076619 C83.2270091,296.295015 83.8627364,295.661235 84.6459409,295.661235 C85.4291455,295.661235 86.0648727,296.295015 86.0648727,297.076619 C86.0648727,297.858222 85.4291455,298.491646 84.6459409,298.491646" id="Fill-320" fill="#E60000"></path>
                <path d="M77.7997023,295.822768 C77.0132761,295.822768 76.376117,295.186846 76.376117,294.402743 C76.376117,293.618283 77.0132761,292.982717 77.7997023,292.982717 C78.5857705,292.982717 79.2232875,293.618283 79.2232875,294.402743 C79.2232875,295.186846 78.5857705,295.822768 77.7997023,295.822768" id="Fill-322" fill="#E60000"></path>
                <path d="M71.1212727,292.756377 C70.3323409,292.756377 69.6926761,292.118312 69.6926761,291.331353 C69.6926761,290.544393 70.3323409,289.906685 71.1212727,289.906685 C71.9102045,289.906685 72.5498693,290.544393 72.5498693,291.331353 C72.5498693,292.118312 71.9102045,292.756377 71.1212727,292.756377" id="Fill-324" fill="#E60000"></path>
                <path d="M64.6371767,289.297363 C63.847171,289.297363 63.2071483,288.658584 63.2071483,287.870553 C63.2071483,287.08288 63.847171,286.444101 64.6371767,286.444101 C65.4271824,286.444101 66.0675631,287.08288 66.0675631,287.870553 C66.0675631,288.658584 65.4271824,289.297363 64.6371767,289.297363" id="Fill-326" fill="#E60000"></path>
                <path d="M58.372292,285.451654 C57.58515,285.451654 56.946917,284.815017 56.946917,284.0302 C56.946917,283.244669 57.58515,282.608389 58.372292,282.608389 C59.1590761,282.608389 59.7969511,283.244669 59.7969511,284.0302 C59.7969511,284.815017 59.1590761,285.451654 58.372292,285.451654" id="Fill-328" fill="#E60000"></path>
                <path d="M52.3492773,281.237709 C51.5649989,281.237709 50.9292716,280.603214 50.9292716,279.820897 C50.9292716,279.038222 51.5649989,278.404084 52.3492773,278.404084 C53.1335557,278.404084 53.7699989,279.038222 53.7699989,279.820897 C53.7699989,280.603214 53.1335557,281.237709 52.3492773,281.237709" id="Fill-330" fill="#E60000"></path>
                <path d="M46.5922943,276.669061 C45.8101636,276.669061 45.176942,276.037066 45.176942,275.257248 C45.176942,274.47743 45.8101636,273.845434 46.5922943,273.845434 C47.374067,273.845434 48.0076466,274.47743 48.0076466,275.257248 C48.0076466,276.037066 47.374067,276.669061 46.5922943,276.669061" id="Fill-332" fill="#E60000"></path>
                <path d="M41.1219614,271.761706 C40.3430523,271.761706 39.7119784,271.131853 39.7119784,270.354892 C39.7119784,269.57793 40.3430523,268.94772 41.1219614,268.94772 C41.9012284,268.94772 42.5326602,269.57793 42.5326602,270.354892 C42.5326602,271.131853 41.9012284,271.761706 41.1219614,271.761706" id="Fill-334" fill="#E60000"></path>
                <path d="M35.9588608,266.533677 C35.1828153,266.533677 34.5535312,265.905966 34.5535312,265.131504 C34.5535312,264.357399 35.1828153,263.729688 35.9588608,263.729688 C36.7352642,263.729688 37.3645483,264.357399 37.3645483,265.131504 C37.3645483,265.905966 36.7352642,266.533677 35.9588608,266.533677" id="Fill-336" fill="#E60000"></path>
                <path d="M31.1208903,261.004575 C30.3473506,261.004575 29.7205722,260.379006 29.7205722,259.607401 C29.7205722,258.835795 30.3473506,258.210227 31.1208903,258.210227 C31.8944301,258.210227 32.5215665,258.835795 32.5215665,259.607401 C32.5215665,260.379006 31.8944301,261.004575 31.1208903,261.004575" id="Fill-338" fill="#E60000"></path>
                <path d="M26.6237284,255.196002 C25.8530523,255.196002 25.2280636,254.572576 25.2280636,253.803827 C25.2280636,253.035078 25.8530523,252.411652 26.6237284,252.411652 C27.3944045,252.411652 28.0193932,253.035078 28.0193932,253.803827 C28.0193932,254.572576 27.3944045,255.196002 26.6237284,255.196002" id="Fill-340" fill="#E60000"></path>
                <path d="M22.480333,249.130775 C21.7121625,249.130775 21.0896795,248.509491 21.0896795,247.743599 C21.0896795,246.977349 21.7121625,246.356065 22.480333,246.356065 C23.2485034,246.356065 23.8713443,246.977349 23.8713443,247.743599 C23.8713443,248.509491 23.2485034,249.130775 22.480333,249.130775" id="Fill-342" fill="#E60000"></path>
                <path d="M18.701908,242.832816 C17.9366011,242.832816 17.315908,242.214032 17.315908,241.450639 C17.315908,240.686889 17.9366011,240.068105 18.701908,240.068105 C19.4672148,240.068105 20.087908,240.686889 20.087908,241.450639 C20.087908,242.214032 19.4672148,242.832816 18.701908,242.832816" id="Fill-344" fill="#E60000"></path>
                <path d="M15.2953977,236.326835 C14.5325966,236.326835 13.914767,235.710193 13.914767,234.949299 C13.914767,234.188763 14.5325966,233.572121 15.2953977,233.572121 C16.0581989,233.572121 16.6760284,234.188763 16.6760284,234.949299 C16.6760284,235.710193 16.0581989,236.326835 15.2953977,236.326835" id="Fill-346" fill="#E60000"></path>
                <path d="M12.2653483,229.637825 C11.5057688,229.637825 10.889371,229.023326 10.889371,228.265288 C10.889371,227.507251 11.5057688,226.892751 12.2653483,226.892751 C13.0252858,226.892751 13.6416835,227.507251 13.6416835,228.265288 C13.6416835,229.023326 13.0252858,229.637825 12.2653483,229.637825" id="Fill-348" fill="#E60000"></path>
                <path d="M9.61426534,222.790566 C8.85719148,222.790566 8.24329943,222.178209 8.24329943,221.423028 C8.24329943,220.66749 8.85719148,220.05549 9.61426534,220.05549 C10.3713392,220.05549 10.9852313,220.66749 10.9852313,221.423028 C10.9852313,222.178209 10.3713392,222.790566 9.61426534,222.790566" id="Fill-350" fill="#E60000"></path>
                <path d="M7.34068125,215.801519 C6.59040852,215.801519 5.98295966,215.195232 5.98295966,214.447192 C5.98295966,213.69951 6.59040852,213.093223 7.34068125,213.093223 C8.09023807,213.093223 8.69804489,213.69951 8.69804489,214.447192 C8.69804489,215.195232 8.09023807,215.801519 7.34068125,215.801519" id="Fill-352" fill="#E60000"></path>
                <path d="M5.44044375,208.700248 C4.69876193,208.700248 4.0973983,208.100745 4.0973983,207.360918 C4.0973983,206.621091 4.69876193,206.021588 5.44044375,206.021588 C6.18176761,206.021588 6.7827733,206.621091 6.7827733,207.360918 C6.7827733,208.100745 6.18176761,208.700248 5.44044375,208.700248" id="Fill-354" fill="#E60000"></path>
                <path d="M3.90725284,201.510498 C3.17380398,201.510498 2.57959943,200.917422 2.57959943,200.185807 C2.57959943,199.454192 3.17380398,198.861473 3.90725284,198.861473 C4.6407017,198.861473 5.23562216,199.454192 5.23562216,200.185807 C5.23562216,200.917422 4.6407017,201.510498 3.90725284,201.510498" id="Fill-356" fill="#E60000"></path>
                <path d="M2.73412841,194.25337 C2.00927045,194.25337 1.42115114,193.667079 1.42115114,192.943676 C1.42115114,192.220274 2.00927045,191.633982 2.73412841,191.633982 C3.45934432,191.633982 4.04710568,192.220274 4.04710568,192.943676 C4.04710568,193.667079 3.45934432,194.25337 2.73412841,194.25337" id="Fill-358" fill="#E60000"></path>
                <path d="M1.91090455,186.948183 C1.19392159,186.948183 0.612961364,186.368318 0.612961364,185.653128 C0.612961364,184.937938 1.19392159,184.35843 1.91090455,184.35843 C2.6278875,184.35843 3.20884773,184.937938 3.20884773,185.653128 C3.20884773,186.368318 2.6278875,186.948183 1.91090455,186.948183" id="Fill-360" fill="#E60000"></path>
                <path d="M1.42641307,179.613645 C0.718021023,179.613645 0.143146023,179.040564 0.143146023,178.333586 C0.143146023,177.626609 0.718021023,177.053528 1.42641307,177.053528 C2.13480511,177.053528 2.70968011,177.626609 2.70968011,178.333586 C2.70968011,179.040564 2.13480511,179.613645 1.42641307,179.613645" id="Fill-362" fill="#E60000"></path>
                <g id="Group-366" transform="translate(0.000000, 169.603267)">
                    <mask id="mask-2" fill="white">
                        <use xlink:href="#path-1"></use>
                    </mask>
                    <g id="Clip-365"></g>
                    <path d="M1.26841193,2.66155729 C0.567894886,2.66155729 -0.000178977273,2.09526091 -0.000178977273,1.39649545 C-0.000178977273,0.697729988 0.567894886,0.131076546 1.26841193,0.131076546 C1.96892898,0.131076546 2.53700284,0.697729988 2.53700284,1.39649545 C2.53700284,2.09526091 1.96892898,2.66155729 1.26841193,2.66155729" id="Fill-364" fill="#E60000" mask="url(#mask-2)"></path>
                </g>
                <path d="M1.46134943,164.91704 C0.768707386,164.91704 0.207792614,164.35717 0.207792614,163.666617 C0.207792614,162.976064 0.768707386,162.416195 1.46134943,162.416195 C2.15399148,162.416195 2.71490625,162.976064 2.71490625,163.666617 C2.71490625,164.35717 2.15399148,164.91704 1.46134943,164.91704" id="Fill-367" fill="#E60000"></path>
                <path d="M2.0293875,157.588607 C1.34569432,157.588607 0.790864773,157.035522 0.790864773,156.352825 C0.790864773,155.670484 1.34569432,155.117399 2.0293875,155.117399 C2.71379659,155.117399 3.26826818,155.670484 3.26826818,156.352825 C3.26826818,157.035522 2.71379659,157.588607 2.0293875,157.588607" id="Fill-369" fill="#E60000"></path>
                <path d="M2.96132216,150.297202 C2.28550398,150.297202 1.73783352,149.750544 1.73783352,149.076416 C1.73783352,148.402288 2.28550398,147.855629 2.96132216,147.855629 C3.6374983,147.855629 4.1855267,148.402288 4.1855267,149.076416 C4.1855267,149.750544 3.6374983,150.297202 2.96132216,150.297202" id="Fill-371" fill="#E60000"></path>
                <path d="M4.24530511,143.059178 C3.57771989,143.059178 3.03613466,142.519304 3.03613466,141.853388 C3.03613466,141.187115 3.57771989,140.647241 4.24530511,140.647241 C4.91289034,140.647241 5.45447557,141.187115 5.45447557,141.853388 C5.45447557,142.519304 4.91289034,143.059178 4.24530511,143.059178" id="Fill-373" fill="#E60000"></path>
                <path d="M5.87041875,135.880675 C5.21571989,135.880675 4.68523125,135.351512 4.68523125,134.698808 C4.68523125,134.045746 5.21571989,133.516584 5.87041875,133.516584 C6.52475966,133.516584 7.0552483,134.045746 7.0552483,134.698808 C7.0552483,135.351512 6.52475966,135.880675 5.87041875,135.880675" id="Fill-375" fill="#E60000"></path>
                <path d="M7.82553068,128.784188 C7.18479205,128.784188 6.6654,128.266095 6.6654,127.626601 C6.6654,126.987465 7.18479205,126.469372 7.82553068,126.469372 C8.46626932,126.469372 8.98566136,126.987465 8.98566136,127.626601 C8.98566136,128.266095 8.46626932,128.784188 7.82553068,128.784188" id="Fill-377" fill="#E60000"></path>
                <path d="M10.1008688,121.783608 C9.47373239,121.783608 8.96507898,121.276227 8.96507898,120.650658 C8.96507898,120.02509 9.47373239,119.517709 10.1008688,119.517709 C10.7280051,119.517709 11.2366585,120.02509 11.2366585,120.650658 C11.2366585,121.276227 10.7280051,121.783608 10.1008688,121.783608" id="Fill-379" fill="#E60000"></path>
                <path d="M12.6862312,114.891324 C12.0726972,114.891324 11.5751403,114.395011 11.5751403,113.783011 C11.5751403,113.170654 12.0726972,112.674699 12.6862312,112.674699 C13.3001233,112.674699 13.7973222,113.170654 13.7973222,113.783011 C13.7973222,114.395011 13.3001233,114.891324 12.6862312,114.891324" id="Fill-381" fill="#E60000"></path>
                <path d="M15.5722398,108.119119 C14.972308,108.119119 14.4858477,107.633875 14.4858477,107.035444 C14.4858477,106.436655 14.972308,105.951411 15.5722398,105.951411 C16.1725295,105.951411 16.6586318,106.436655 16.6586318,107.035444 C16.6586318,107.633875 16.1725295,108.119119 15.5722398,108.119119" id="Fill-383" fill="#E60000"></path>
                <path d="M18.7494443,101.478312 C18.1627568,101.478312 17.6873932,101.004137 17.6873932,100.418917 C17.6873932,99.8340532 18.1627568,99.3595211 18.7494443,99.3595211 C19.3361318,99.3595211 19.8114955,99.8340532 19.8114955,100.418917 C19.8114955,101.004137 19.3361318,101.478312 18.7494443,101.478312" id="Fill-385" fill="#E60000"></path>
                <path d="M22.2083949,94.9794007 C21.6349517,94.9794007 21.1710426,94.5162945 21.1710426,93.9446422 C21.1710426,93.37299 21.6349517,92.9098838 22.2083949,92.9098838 C22.7811222,92.9098838 23.2453892,93.37299 23.2453892,93.9446422 C23.2453892,94.5162945 22.7811222,94.9794007 22.2083949,94.9794007" id="Fill-387" fill="#E60000"></path>
                <path d="M25.9389614,88.632775 C25.3798364,88.632775 24.9266659,88.1803806 24.9266659,87.6226537 C24.9266659,87.0645697 25.3798364,86.6121753 25.9389614,86.6121753 C26.4980864,86.6121753 26.9519727,87.0645697 26.9519727,87.6226537 C26.9519727,88.1803806 26.4980864,88.632775 25.9389614,88.632775" id="Fill-389" fill="#E60000"></path>
                <path d="M29.9330898,82.4479687 C29.387567,82.4479687 28.9451352,82.0066432 28.9451352,81.4624845 C28.9451352,80.9179687 29.387567,80.4766432 29.9330898,80.4766432 C30.4789705,80.4766432 30.9214023,80.9179687 30.9214023,81.4624845 C30.9214023,82.0066432 30.4789705,82.4479687 29.9330898,82.4479687" id="Fill-391" fill="#E60000"></path>
                <path d="M34.1799341,76.4296593 C33.6508773,76.4296593 33.2224057,76.001902 33.2224057,75.4745251 C33.2224057,74.9467911 33.6508773,74.5190338 34.1799341,74.5190338 C34.7089909,74.5190338 35.1374625,74.9467911 35.1374625,75.4745251 C35.1374625,76.001902 34.7089909,76.4296593 34.1799341,76.4296593" id="Fill-393" fill="#E60000"></path>
                <path d="M38.670796,70.5873445 C38.1603528,70.5873445 37.7472733,70.1749407 37.7472733,69.6661309 C37.7472733,69.1573211 38.1603528,68.7449174 38.670796,68.7449174 C39.1805233,68.7449174 39.5943187,69.1573211 39.5943187,69.6661309 C39.5943187,70.1749407 39.1805233,70.5873445 38.670796,70.5873445" id="Fill-395" fill="#E60000"></path>
                <path d="M43.3958676,64.9328786 C42.904754,64.9328786 42.5063506,64.5358285 42.5063506,64.0455858 C42.5063506,63.5557001 42.904754,63.1586499 43.3958676,63.1586499 C43.8869813,63.1586499 44.2850267,63.5557001 44.2850267,64.0455858 C44.2850267,64.5358285 43.8869813,64.9328786 43.3958676,64.9328786" id="Fill-397" fill="#E60000"></path>
                <path d="M48.3453767,59.4738672 C47.8732347,59.4738672 47.4902233,59.0918135 47.4902233,58.620852 C47.4902233,58.1495335 47.8732347,57.7678369 48.3453767,57.7678369 C48.8178767,57.7678369 49.2008881,58.1495335 49.2008881,58.620852 C49.2008881,59.0918135 48.8178767,59.4738672 48.3453767,59.4738672" id="Fill-399" fill="#E60000"></path>
                <path d="M53.5098375,54.2172728 C53.0559511,54.2172728 52.6883318,53.8505727 52.6883318,53.3981783 C52.6883318,52.9457839 53.0559511,52.5794408 53.5098375,52.5794408 C53.963008,52.5794408 54.3306273,52.9457839 54.3306273,53.3981783 C54.3306273,53.8505727 53.963008,54.2172728 53.5098375,54.2172728" id="Fill-401" fill="#E60000"></path>
                <path d="M58.8777597,49.1695225 C58.4432028,49.1695225 58.0909756,48.818176 58.0909756,48.3847057 C58.0909756,47.9512355 58.4432028,47.5995319 58.8777597,47.5995319 C59.3126744,47.5995319 59.6649017,47.9512355 59.6649017,48.3847057 C59.6649017,48.818176 59.3126744,49.1695225 58.8777597,49.1695225" id="Fill-403" fill="#E60000"></path>
                <path d="M64.4400153,44.3363293 C64.0240722,44.3363293 63.686879,43.9999792 63.686879,43.5854331 C63.686879,43.170887 64.0240722,42.834537 64.4400153,42.834537 C64.8556006,42.834537 65.1927938,43.170887 65.1927938,43.5854331 C65.1927938,43.9999792 64.8556006,44.3363293 64.4400153,44.3363293" id="Fill-405" fill="#E60000"></path>
                <path d="M70.184792,39.722442 C69.7881784,39.722442 69.4660193,39.4014455 69.4660193,39.0054665 C69.4660193,38.6098446 69.7881784,38.2888481 70.184792,38.2888481 C70.5817636,38.2888481 70.9035648,38.6098446 70.9035648,39.0054665 C70.9035648,39.4014455 70.5817636,39.722442 70.184792,39.722442" id="Fill-407" fill="#E60000"></path>
                <path d="M76.1022102,35.3236117 C75.7288636,35.3236117 75.426392,35.0218964 75.426392,34.6494833 C75.426392,34.2770702 75.7288636,33.975355 76.1022102,33.975355 C76.4755568,33.975355 76.7783864,34.2770702 76.7783864,34.6494833 C76.7783864,35.0218964 76.4755568,35.3236117 76.1022102,35.3236117" id="Fill-409" fill="#E60000"></path>
                <path d="M82.1811375,31.1510142 C81.8317739,31.1510142 81.5486318,30.8685802 81.5486318,30.5204471 C81.5486318,30.1719571 81.8317739,29.889523 82.1811375,29.889523 C82.5305011,29.889523 82.8136432,30.1719571 82.8136432,30.5204471 C82.8136432,30.8685802 82.5305011,31.1510142 82.1811375,31.1510142" id="Fill-411" fill="#E60000"></path>
                <path d="M88.4107636,27.2080061 C88.085383,27.2080061 87.8215705,26.9448532 87.8215705,26.6206432 C87.8215705,26.2964331 88.085383,26.0332803 88.4107636,26.0332803 C88.7357864,26.0332803 88.9999568,26.2964331 88.9999568,26.6206432 C88.9999568,26.9448532 88.7357864,27.2080061 88.4107636,27.2080061" id="Fill-413" fill="#E60000"></path>
                <path d="M94.780171,23.4962653 C94.4787733,23.4962653 94.2346483,23.2527508 94.2346483,22.9524637 C94.2346483,22.6518196 94.4787733,22.408305 94.780171,22.408305 C95.0812108,22.408305 95.3253358,22.6518196 95.3253358,22.9524637 C95.3253358,23.2527508 95.0812108,23.4962653 94.780171,23.4962653" id="Fill-415" fill="#E60000"></path>
                <path d="M101.277905,20.0169347 C101.001206,20.0169347 100.776411,19.7927013 100.776411,19.5163372 C100.776411,19.2399732 101.001206,19.0157398 101.277905,19.0157398 C101.55532,19.0157398 101.779757,19.2399732 101.779757,19.5163372 C101.779757,19.7927013 101.55532,20.0169347 101.277905,20.0169347" id="Fill-417" fill="#E60000"></path>
                <path d="M107.893048,16.7707281 C107.639974,16.7707281 107.435224,16.566133 107.435224,16.3136919 C107.435224,16.0608938 107.639974,15.8562987 107.893048,15.8562987 C108.14648,15.8562987 108.351588,16.0608938 108.351588,16.3136919 C108.351588,16.566133 108.14648,16.7707281 107.893048,16.7707281" id="Fill-419" fill="#E60000"></path>
                <path d="M114.61658,13.7482908 C114.392143,13.7482908 114.209944,13.5665475 114.209944,13.3426712 C114.209944,13.1184378 114.392143,12.9366945 114.61658,12.9366945 C114.841376,12.9366945 115.023574,13.1184378 115.023574,13.3426712 C115.023574,13.5665475 114.841376,13.7482908 114.61658,13.7482908" id="Fill-421" fill="#E60000"></path>
                <path d="M121.438335,10.9550856 C121.242891,10.9550856 121.084318,10.7969083 121.084318,10.6019538 C121.084318,10.4066422 121.242891,10.2484649 121.438335,10.2484649 C121.633778,10.2484649 121.792352,10.4066422 121.792352,10.6019538 C121.792352,10.7969083 121.633778,10.9550856 121.438335,10.9550856" id="Fill-423" fill="#E60000"></path>
                <path d="M128.348218,8.39064854 C128.181769,8.39064854 128.04682,8.25603711 128.04682,8.09000443 C128.04682,7.9236147 128.181769,7.78900327 128.348218,7.78900327 C128.514666,7.78900327 128.649615,7.9236147 128.649615,8.09000443 C128.649615,8.25603711 128.514666,8.39064854 128.348218,8.39064854" id="Fill-425" fill="#E60000"></path>
                <path d="M135.336707,6.05223011 C135.198895,6.05223011 135.087929,5.9411846 135.087929,5.80407375 C135.087929,5.66696289 135.198895,5.55591739 135.336707,5.55591739 C135.474162,5.55591739 135.585486,5.66696289 135.585486,5.80407375 C135.585486,5.9411846 135.474162,6.05223011 135.336707,6.05223011" id="Fill-427" fill="#E60000"></path>
                <path d="M142.394784,3.9312252 C142.289545,3.9312252 142.204352,3.84624504 142.204352,3.74126954 C142.204352,3.63629405 142.289545,3.55131389 142.394784,3.55131389 C142.500022,3.55131389 142.585215,3.63629405 142.585215,3.74126954 C142.585215,3.84624504 142.500022,3.9312252 142.394784,3.9312252" id="Fill-429" fill="#E60000"></path>
                <path d="M149.513676,2.02467025 C149.443517,2.02467025 149.386602,1.96789778 149.386602,1.89791412 C149.386602,1.82793046 149.443517,1.77115799 149.513676,1.77115799 C149.583477,1.77115799 149.64075,1.82793046 149.64075,1.89791412 C149.64075,1.96789778 149.583477,2.02467025 149.513676,2.02467025" id="Fill-431" fill="#E60000"></path>
                <g id="Group-435" transform="translate(156.426136, 0.000000)">
                    <mask id="mask-4" fill="white">
                        <use xlink:href="#path-3"></use>
                    </mask>
                    <g id="Clip-434"></g>
                    <path d="M0.258514773,0.333707818 C0.223435227,0.333707818 0.194798864,0.305143057 0.194798864,0.270508285 C0.194798864,0.235516453 0.223435227,0.206951692 0.258514773,0.206951692 C0.293594318,0.206951692 0.322230682,0.235516453 0.322230682,0.270508285 C0.322230682,0.305143057 0.293594318,0.333707818 0.258514773,0.333707818" id="Fill-433" fill="#E60000" mask="url(#mask-4)"></path>
                </g>
            </g>
            <path d="M169.5,91 C169.22407,91 169,90.7757101 169,90.5004897 C169,90.2242899 169.22407,90 169.5,90 C169.77593,90 170,90.2242899 170,90.5004897 C170,90.7757101 169.77593,91 169.5,91" id="Fill-437" fill="#E60000"></path>
            <path d="M176.500255,95 C176.223637,95 176,94.7763627 176,94.4997453 C176,94.2236373 176.223637,94 176.500255,94 C176.776363,94 177,94.2236373 177,94.4997453 C177,94.7763627 176.776363,95 176.500255,95" id="Fill-439" fill="#E60000"></path>
            <path d="M184.5,98 C184.223666,98 184,97.7762557 184,97.4998244 C184,97.2237443 184.223666,97 184.5,97 C184.775983,97 185,97.2237443 185,97.4998244 C185,97.7762557 184.775983,98 184.5,98" id="Fill-441" fill="#E60000"></path>
            <path d="M192,104 C191.447729,104 191,103.552271 191,103 C191,102.447729 191.447729,102 192,102 C192.552271,102 193,102.447729 193,103 C193,103.552271 192.552271,104 192,104" id="Fill-443" fill="#E60000"></path>
            <path d="M197,109 C196.447734,109 196,108.552018 196,108 C196,107.447534 196.447734,107 197,107 C197.552266,107 198,107.447534 198,108 C198,108.552018 197.552266,109 197,109" id="Fill-445" fill="#E60000"></path>
            <path d="M203.999809,116 C203.448098,116 203,115.552284 203,114.999809 C203,114.447716 203.448098,114 203.999809,114 C204.552284,114 205,114.447716 205,114.999809 C205,115.552284 204.552284,116 203.999809,116" id="Fill-447" fill="#E60000"></path>
            <path d="M209.99983,122 C209.447685,122 209,121.552391 209,121 C209,120.447948 209.447685,120 209.99983,120 C210.552315,120 211,120.447948 211,121 C211,121.552391 210.552315,122 209.99983,122" id="Fill-449" fill="#E60000"></path>
            <path d="M214.999848,128 C214.447661,128 214,127.552407 214,127 C214,126.447593 214.447661,126 214.999848,126 C215.552034,126 216,126.447593 216,127 C216,127.552407 215.552034,128 214.999848,128" id="Fill-451" fill="#E60000"></path>
            <path d="M218.5,137 C217.671784,137 217,136.328309 217,135.500207 C217,134.671691 217.671784,134 218.5,134 C219.328631,134 220,134.671691 220,135.500207 C220,136.328309 219.328631,137 218.5,137" id="Fill-453" fill="#E60000"></path>
            <path d="M222.49981,145 C221.671647,145 221,144.328353 221,143.49981 C221,142.671647 221.671647,142 222.49981,142 C223.328732,142 224,142.671647 224,143.49981 C224,144.328353 223.328732,145 222.49981,145" id="Fill-455" fill="#E60000"></path>
            <path d="M225.499822,153 C224.671562,153 224,152.328438 224,151.500178 C224,150.671918 224.671562,150 225.499822,150 C226.328438,150 227,150.671918 227,151.500178 C227,152.328438 226.328438,153 225.499822,153" id="Fill-457" fill="#E60000"></path>
            <path d="M227.000223,161 C225.895482,161 225,160.104617 225,159 C225,157.895383 225.895482,157 227.000223,157 C228.104964,157 229,157.895383 229,159 C229,160.104617 228.104964,161 227.000223,161" id="Fill-459" fill="#E60000"></path>
            <path d="M228,170 C226.895447,170 226,169.104647 226,168.000211 C226,166.895353 226.895447,166 228,166 C229.104553,166 230,166.895353 230,168.000211 C230,169.104647 229.104553,170 228,170" id="Fill-461" fill="#E60000"></path>
            <path d="M229,180 C227.895326,180 227,179.104674 227,178 C227,176.895326 227.895326,176 229,176 C230.105074,176 231,176.895326 231,178 C231,179.104674 230.105074,180 229,180" id="Fill-463" fill="#E60000"></path>
            <path d="M229,188 C227.895216,188 227,187.104699 227,185.99981 C227,184.895301 227.895216,184 229,184 C230.104024,184 231,184.895301 231,185.99981 C231,187.104699 230.104024,188 229,188" id="Fill-465" fill="#E60000"></path>
            <path d="M228.5,197 C227.119626,197 226,195.880624 226,194.5 C226,193.119376 227.119626,192 228.5,192 C229.880374,192 231,193.119376 231,194.5 C231,195.880624 229.880374,197 228.5,197" id="Fill-467" fill="#E60000"></path>
            <path d="M227.499781,206 C226.1192,206 225,204.8808 225,203.499781 C225,202.1192 226.1192,201 227.499781,201 C228.880361,201 230,202.1192 230,203.499781 C230,204.8808 228.880361,206 227.499781,206" id="Fill-469" fill="#E60000"></path>
            <path d="M226.500212,213 C225.119365,213 224,211.880965 224,210.5 C224,209.119035 225.119365,208 226.500212,208 C227.880635,208 229,209.119035 229,210.5 C229,211.880965 227.880635,213 226.500212,213" id="Fill-471" fill="#E60000"></path>
            <path d="M223.499794,222 C222.119292,222 221,220.880708 221,219.499794 C221,218.119292 222.119292,217 223.499794,217 C224.880708,217 226,218.119292 226,219.499794 C226,220.880708 224.880708,222 223.499794,222" id="Fill-473" fill="#E60000"></path>
            <path d="M218.499801,230 C217.119445,230 216,228.880865 216,227.5 C216,226.119135 217.119445,225 218.499801,225 C219.880555,225 221,226.119135 221,227.5 C221,228.880865 219.880555,230 218.499801,230" id="Fill-475" fill="#E60000"></path>
            <path d="M215.5,237 C214.119461,237 213,235.880626 213,234.499806 C213,233.119374 214.119461,232 215.5,232 C216.880927,232 218,233.119374 218,234.499806 C218,235.880626 216.880927,237 215.5,237" id="Fill-477" fill="#E60000"></path>
            <path d="M211.5,244 C210.119223,244 209,242.880777 209,241.5 C209,240.119223 210.119223,239 211.5,239 C212.8804,239 214,240.119223 214,241.5 C214,242.880777 212.8804,244 211.5,244" id="Fill-479" fill="#E60000"></path>
            <path d="M206.5,252 C205.119271,252 204,250.880646 204,249.500184 C204,248.119354 205.119271,247 206.5,247 C207.880729,247 209,248.119354 209,249.500184 C209,250.880646 207.880729,252 206.5,252" id="Fill-481" fill="#E60000"></path>
            <path d="M199.5,257 C198.119236,257 197,255.880565 197,254.5 C197,253.119435 198.119236,252 199.5,252 C200.880764,252 202,253.119435 202,254.5 C202,255.880565 200.880764,257 199.5,257" id="Fill-483" fill="#E60000"></path>
            <path d="M193.500177,264 C192.11916,264 191,262.88084 191,261.500177 C191,260.119514 192.11916,259 193.500177,259 C194.880486,259 196,260.119514 196,261.500177 C196,262.88084 194.880486,264 193.500177,264" id="Fill-485" fill="#E60000"></path>
            <path d="M186.500173,268 C185.119667,268 184,266.880757 184,265.5 C184,264.119589 185.119667,263 186.500173,263 C187.88068,263 189,264.119589 189,265.5 C189,266.880757 187.88068,268 186.500173,268" id="Fill-487" fill="#E60000"></path>
            <path d="M179.500171,273 C178.119082,273 177,271.880577 177,270.499829 C177,269.119082 178.119082,268 179.500171,268 C180.880577,268 182,269.119082 182,270.499829 C182,271.880577 180.880577,273 179.500171,273" id="Fill-489" fill="#E60000"></path>
            <path d="M171.999798,277 C170.343314,277 169,275.657091 169,274.000202 C169,272.343314 170.343314,271 171.999798,271 C173.657091,271 175,272.343314 175,274.000202 C175,275.657091 173.657091,277 171.999798,277" id="Fill-491" fill="#E60000"></path>
            <path d="M163.9998,280 C162.343319,280 161,278.656991 161,277 C161,275.343409 162.343319,274 163.9998,274 C165.656281,274 167,275.343409 167,277 C167,278.656991 165.656281,280 163.9998,280" id="Fill-493" fill="#E60000"></path>
            <path d="M154.999803,284 C153.343107,284 152,282.656893 152,280.999803 C152,279.343107 153.343107,278 154.999803,278 C156.656499,278 158,279.343107 158,280.999803 C158,282.656893 156.656499,284 154.999803,284" id="Fill-495" fill="#E60000"></path>
            <path d="M148,286 C146.343441,286 145,284.656862 145,282.999805 C145,281.343138 146.343441,280 148,280 C149.65695,280 151,281.343138 151,282.999805 C151,284.656862 149.65695,286 148,286" id="Fill-497" fill="#E60000"></path>
            <path d="M139.000388,287 C137.343625,287 136,285.656763 136,284 C136,282.343237 137.343625,281 139.000388,281 C140.656763,281 142,282.343237 142,284 C142,285.656763 140.656763,287 139.000388,287" id="Fill-499" fill="#E60000"></path>
            <path d="M130.000192,288 C128.342951,288 127,286.656665 127,284.999808 C127,283.342951 128.342951,282 130.000192,282 C131.657049,282 133,283.342951 133,284.999808 C133,286.656665 131.657049,288 130.000192,288" id="Fill-501" fill="#E60000"></path>
            <path d="M121.999618,288 C120.34305,288 119,286.65695 119,285 C119,283.34305 120.34305,282 121.999618,282 C123.65695,282 125,283.34305 125,285 C125,286.65695 123.65695,288 121.999618,288" id="Fill-503" fill="#E60000"></path>
            <path d="M114,287 C112.343193,287 111,285.656892 111,284.00019 C111,282.343108 112.343193,281 114,281 C115.657186,281 117,282.343108 117,284.00019 C117,285.656892 115.657186,287 114,287" id="Fill-505" fill="#E60000"></path>
            <path d="M105,285 C103.34321,285 102,283.656705 102,281.999811 C102,280.342917 103.34321,279 105,279 C106.65679,279 108,280.342917 108,281.999811 C108,283.656705 106.65679,285 105,285" id="Fill-507" fill="#E60000"></path>
            <path d="M98,282 C96.3428104,282 95,280.656897 95,278.999811 C95,277.343103 96.3428104,276 98,276 C99.6571896,276 101,277.343103 101,278.999811 C101,280.656897 99.6571896,282 98,282" id="Fill-509" fill="#E60000"></path>
            <path d="M88.9998118,279 C87.3431206,279 86,277.656795 86,276 C86,274.343205 87.3431206,273 88.9998118,273 C90.6565029,273 92,274.343205 92,276 C92,277.656795 90.6565029,279 88.9998118,279" id="Fill-511" fill="#E60000"></path>
            <path d="M80,276 C78.3433901,276 77,274.656985 77,273 C77,271.343015 78.3433901,270 80,270 C81.6569855,270 83,271.343015 83,273 C83,274.656985 81.6569855,276 80,276" id="Fill-513" fill="#E60000"></path>
            <path d="M73,272 C71.3433004,272 70,270.6567 70,269 C70,267.3433 71.3433004,266 73,266 C74.6570749,266 76,267.3433 76,269 C76,270.6567 74.6570749,272 73,272" id="Fill-515" fill="#E60000"></path>
            <path d="M66,268 C64.3434913,268 63,266.656801 63,265.000188 C63,263.343199 64.3434913,262 66,262 C67.6565087,262 69,263.343199 69,265.000188 C69,266.656801 67.6565087,268 66,268" id="Fill-517" fill="#E60000"></path>
            <path d="M59.9998114,262 C58.3430134,262 57,260.656987 57,259.000189 C57,257.343391 58.3430134,256 59.9998114,256 C61.6566095,256 63,257.343391 63,259.000189 C63,260.656987 61.6566095,262 59.9998114,262" id="Fill-519" fill="#E60000"></path>
            <path d="M53,256 C51.3432892,256 50,254.656711 50,253 C50,251.343289 51.3432892,250 53,250 C54.6567108,250 56,251.343289 56,253 C56,254.656711 54.6567108,256 53,256" id="Fill-521" fill="#E60000"></path>
            <path d="M48,249 C46.3434816,249 45,247.656813 45,245.99981 C45,244.343187 46.3434816,243 48,243 C49.6568974,243 51,244.343187 51,245.99981 C51,247.656813 49.6568974,249 48,249" id="Fill-523" fill="#E60000"></path>
            <path d="M42,242 C40.3431186,242 39,240.656881 39,239 C39,237.343119 40.3431186,236 42,236 C43.6568814,236 45,237.343119 45,239 C45,240.656881 43.6568814,242 42,242" id="Fill-525" fill="#E60000"></path>
            <path d="M38.000192,236 C36.343404,236 35,234.656894 35,233 C35,231.343106 36.343404,230 38.000192,230 C39.656212,230 41,231.343106 41,233 C41,234.656894 39.656212,236 38.000192,236" id="Fill-527" fill="#E60000"></path>
            <path d="M34,228 C32.343093,228 31,226.656907 31,225 C31,223.343093 32.343093,222 34,222 C35.656907,222 37,223.343093 37,225 C37,226.656907 35.656907,228 34,228" id="Fill-529" fill="#E60000"></path>
            <path d="M31.0001949,219 C29.3431672,219 28,217.65692 28,216 C28,214.34308 29.3431672,213 31.0001949,213 C32.6568328,213 34,214.34308 34,216 C34,217.65692 32.6568328,219 31.0001949,219" id="Fill-531" fill="#E60000"></path>
            <path d="M29,211 C27.3429958,211 26,209.656611 26,208 C26,206.342996 27.3429958,205 29,205 C30.6566107,205 32,206.342996 32,208 C32,209.656611 30.6566107,211 29,211" id="Fill-533" fill="#E60000"></path>
            <path d="M26,203 C24.3433847,203 23,201.657014 23,200 C23,198.343385 24.3433847,197 26,197 C27.6566153,197 29,198.343385 29,200 C29,201.657014 27.6566153,203 26,203" id="Fill-535" fill="#E60000"></path>
            <path d="M24,195 C22.3429763,195 21,193.656933 21,192.000202 C21,190.343067 22.3429763,189 24,189 C25.65662,189 27,190.343067 27,192.000202 C27,193.656933 25.65662,195 24,195" id="Fill-537" fill="#E60000"></path>
            <path d="M23.5001704,186 C22.1195556,186 21,184.880709 21,183.5 C21,182.119291 22.1195556,181 23.5001704,181 C24.8807852,181 26,182.119291 26,183.5 C26,184.880709 24.8807852,186 23.5001704,186" id="Fill-539" fill="#E60000"></path>
            <path d="M22.5001729,177 C21.1190262,177 20,175.880705 20,174.5 C20,173.119295 21.1190262,172 22.5001729,172 C23.880628,172 25,173.119295 25,174.5 C25,175.880705 23.880628,177 22.5001729,177" id="Fill-541" fill="#E60000"></path>
            <path d="M22.5,168 C21.1192926,168 20,166.880707 20,165.5 C20,164.119293 21.1192926,163 22.5,163 C23.8807074,163 25,164.119293 25,165.5 C25,166.880707 23.8807074,168 22.5,168" id="Fill-543" fill="#E60000"></path>
            <path d="M22.4996409,160 C21.1192904,160 20,158.880629 20,157.50018 C20,156.119371 21.1192904,155 22.4996409,155 C23.8807096,155 25,156.119371 25,157.50018 C25,158.880629 23.8807096,160 22.4996409,160" id="Fill-545" fill="#E60000"></path>
            <path d="M24.5,152 C23.119086,152 22,150.88063 22,149.500183 C22,148.11937 23.119086,147 24.5,147 C25.880914,147 27,148.11937 27,149.500183 C27,150.88063 25.880914,152 24.5,152" id="Fill-547" fill="#E60000"></path>
            <path d="M25.5,144 C24.1191904,144 23,142.880726 23,141.500187 C23,140.119274 24.1191904,139 25.5,139 C26.8808096,139 28,140.119274 28,141.500187 C28,142.880726 26.8808096,144 25.5,144" id="Fill-549" fill="#E60000"></path>
            <path d="M28.4998071,135 C27.1192993,135 26,133.880787 26,132.5 C26,131.119213 27.1192993,130 28.4998071,130 C29.8807007,130 31,131.119213 31,132.5 C31,133.880787 29.8807007,135 28.4998071,135" id="Fill-551" fill="#E60000"></path>
            <path d="M30.4996025,127 C29.1192369,127 28,125.880763 28,124.5 C28,123.119237 29.1192369,122 30.4996025,122 C31.8807631,122 33,123.119237 33,124.5 C33,125.880763 31.8807631,127 30.4996025,127" id="Fill-553" fill="#E60000"></path>
            <path d="M34.4995902,119 C33.1190788,119 32,117.880829 32,116.499795 C32,115.119171 33.1190788,114 34.4995902,114 C35.8801016,114 37,115.119171 37,116.499795 C37,117.880829 35.8801016,119 34.4995902,119" id="Fill-555" fill="#E60000"></path>
            <path d="M36.5002115,110 C35.1191947,110 34,108.8809 34,107.5 C34,106.119523 35.1191947,105 36.5002115,105 C37.8808053,105 39,106.119523 39,107.5 C39,108.8809 37.8808053,110 36.5002115,110" id="Fill-557" fill="#E60000"></path>
            <path d="M40.5,103 C39.1191225,103 38,101.88044 38,100.5 C38,99.1191225 39.1191225,98 40.5,98 C41.8808775,98 43,99.1191225 43,100.5 C43,101.88044 41.8808775,103 40.5,103" id="Fill-559" fill="#E60000"></path>
            <path d="M45.500226,97 C44.1190455,97 43,95.8805026 43,94.500226 C43,93.1190455 44.1190455,92 45.500226,92 C46.8809545,92 48,93.1190455 48,94.500226 C48,95.8805026 46.8809545,97 45.500226,97" id="Fill-561" fill="#E60000"></path>
            <path d="M50.0001889,88 C48.895607,88 48,87.104393 48,85.9998111 C48,84.8952291 48.895607,84 50.0001889,84 C51.1047709,84 52,84.8952291 52,85.9998111 C52,87.104393 51.1047709,88 50.0001889,88" id="Fill-563" fill="#E60000"></path>
            <path d="M56,81 C54.8952078,81 54,80.1044835 54,78.9998012 C54,77.8955165 54.8952078,77 56,77 C57.1043945,77 58,77.8955165 58,78.9998012 C58,80.1044835 57.1043945,81 56,81" id="Fill-565" fill="#E60000"></path>
            <path d="M61,75 C59.8950902,75 59,74.1044901 59,73 C59,71.8955099 59.8950902,71 61,71 C62.1049098,71 63,71.8955099 63,73 C63,74.1044901 62.1049098,75 61,75" id="Fill-567" fill="#E60000"></path>
            <path d="M67,69 C65.8954031,69 65,68.1045969 65,67 C65,65.8954031 65.8954031,65 67,65 C68.1045969,65 69,65.8954031 69,67 C69,68.1045969 68.1045969,69 67,69" id="Fill-569" fill="#E60000"></path>
            <path d="M73.5,63 C72.6714623,63 72,62.3284585 72,61.4998231 C72,60.6715415 72.6714623,60 73.5,60 C74.3285377,60 75,60.6715415 75,61.4998231 C75,62.3284585 74.3285377,63 73.5,63" id="Fill-571" fill="#E60000"></path>
            <path d="M80.5003778,57 C79.6717884,57 79,56.3285894 79,55.5 C79,54.6714106 79.6717884,54 80.5003778,54 C81.3282116,54 82,54.6714106 82,55.5 C82,56.3285894 81.3282116,57 80.5003778,57" id="Fill-573" fill="#E60000"></path>
            <path d="M85.5002064,51 C84.6714816,51 84,50.3285184 84,49.4997936 C84,48.6714816 84.6714816,48 85.5002064,48 C86.3285184,48 87,48.6714816 87,49.4997936 C87,50.3285184 86.3285184,51 85.5002064,51" id="Fill-575" fill="#E60000"></path>
            <path d="M94.0001515,46 C93.4479467,46 93,45.5523564 93,45.0001515 C93,44.4479467 93.4479467,44 94.0001515,44 C94.5520533,44 95,44.4479467 95,45.0001515 C95,45.5523564 94.5520533,46 94.0001515,46" id="Fill-577" fill="#E60000"></path>
            <path d="M102.000169,42 C101.447968,42 101,41.5522942 101,41 C101,40.4477058 101.447968,40 102.000169,40 C102.55237,40 103,40.4477058 103,41 C103,41.5522942 102.55237,42 102.000169,42" id="Fill-579" fill="#E60000"></path>
            <path d="M108.00019,37 C107.447784,37 107,36.5522161 107,35.9998098 C107,35.4477839 107.447784,35 108.00019,35 C108.552216,35 109,35.4477839 109,35.9998098 C109,36.5522161 108.552216,37 108.00019,37" id="Fill-581" fill="#E60000"></path>
            <path d="M116,34 C115.447615,34 115,33.5523852 115,33 C115,32.4476148 115.447615,32 116,32 C116.552385,32 117,32.4476148 117,33 C117,33.5523852 116.552385,34 116,34" id="Fill-583" fill="#E60000"></path>
            <path d="M125.000544,32 C124.447469,32 124,31.5521088 124,31.0002721 C124,30.4478912 124.447469,30 125.000544,30 C125.552531,30 126,30.4478912 126,31.0002721 C126,31.5521088 125.552531,32 125.000544,32" id="Fill-585" fill="#E60000"></path>
            <path d="M131.5,27 C131.223813,27 131,26.776109 131,26.5001746 C131,26.223891 131.223813,26 131.5,26 C131.776187,26 132,26.223891 132,26.5001746 C132,26.776109 131.776187,27 131.5,27" id="Fill-587" fill="#E60000"></path>
            <path d="M140.499747,26 C140.223797,26 140,25.7763158 140,25.5 C140,25.2241903 140.223797,25 140.499747,25 C140.776203,25 141,25.2241903 141,25.5 C141,25.7763158 140.776203,26 140.499747,26" id="Fill-589" fill="#E60000"></path>
            <path d="M148.499513,23 C148.223953,23 148,22.7760467 148,22.5004869 C148,22.2239533 148.223953,22 148.499513,22 C148.776047,22 149,22.2239533 149,22.5004869 C149,22.7760467 148.776047,23 148.499513,23" id="Fill-591" fill="#E60000"></path>
            <path d="M127.691475,268.436013 C83.0738859,268.436013 40.2438195,229.636143 39.5730961,171.784744 C39.1652964,136.620798 56.914603,96.811088 89.106461,69.6604698 C107.31186,54.3059697 129.0018,42.1521552 155.764197,37.8966049 C131.599556,63.4674273 136.00594,103.432937 136.00594,103.432937 C136.00594,103.432937 193.74395,111.855418 208.22442,157.152783 C226.28208,213.639862 186.088404,268.436013 127.691475,268.436013 M144.447038,96.6720831 C144.636629,89.1865455 143.786331,62.1910124 162.569088,41.3899511 C166.419219,37.1258247 172.798066,31.4705774 177.511373,29.1357243 C179.077825,28.359584 178.814543,26.9763247 176.860682,27.0003078 C145.973783,27.35296 110.057711,39.6468514 83.6802198,63.044338 C53.9287216,87.4223628 31,128.902633 31,171.812973 C31,236.606041 80.4997392,277 127.835993,277 C186.290157,277 221,228.522675 221,184.959476 C221,141.131846 196.998479,109.45803 144.447038,96.6720831" id="Fill-593" fill="#E60000"></path>
        </g>
    </g>
</svg>